<svg width="20" height="20" viewBox="0 0 20 20" fill="none" xmlns="http://www.w3.org/2000/svg">
<g clip-path="url(#clip0_9733_4578)">
<path d="M10.0004 0.400024C4.69839 0.400024 0.400391 4.69802 0.400391 10C0.400391 15.302 4.69839 19.6 10.0004 19.6C15.3024 19.6 19.6004 15.302 19.6004 10C19.6004 4.69802 15.3024 0.400024 10.0004 0.400024ZM7.65039 13.979H5.70639V7.72302H7.65039V13.979ZM6.66639 6.95502C6.05239 6.95502 5.65539 6.52002 5.65539 5.98202C5.65539 5.43302 6.06439 5.01102 6.69139 5.01102C7.31839 5.01102 7.70239 5.43302 7.71439 5.98202C7.71439 6.52002 7.31839 6.95502 6.66639 6.95502ZM14.7504 13.979H12.8064V10.512C12.8064 9.70502 12.5244 9.15702 11.8214 9.15702C11.2844 9.15702 10.9654 9.52802 10.8244 9.88503C10.7724 10.012 10.7594 10.192 10.7594 10.371V13.978H8.81439V9.71803C8.81439 8.93703 8.78939 8.28402 8.76339 7.72202H10.4524L10.5414 8.59102H10.5804C10.8364 8.18302 11.4634 7.58102 12.5124 7.58102C13.7914 7.58102 14.7504 8.43802 14.7504 10.28V13.979Z" fill="#9497A1"/>
</g>
<defs>
<clipPath id="clip0_9733_4578">
<rect width="20" height="20" fill="white"/>
</clipPath>
</defs>
</svg>
