<svg width="12" height="12" viewBox="0 0 12 12" fill="none" xmlns="http://www.w3.org/2000/svg">
<path d="M2.3999 0.400024C1.86947 0.400024 1.36076 0.610738 0.985689 0.985811C0.610616 1.36088 0.399902 1.86959 0.399902 2.40002V2.80002H11.5999V2.40002C11.5999 1.86959 11.3892 1.36088 11.0141 0.985811C10.639 0.610738 10.1303 0.400024 9.5999 0.400024H2.3999ZM11.5999 3.60002H0.399902V9.60003C0.399902 10.1305 0.610616 10.6392 0.985689 11.0142C1.36076 11.3893 1.86947 11.6 2.3999 11.6H9.5999C10.1303 11.6 10.639 11.3893 11.0141 11.0142C11.3892 10.6392 11.5999 10.1305 11.5999 9.60003V3.60002ZM4.3999 6.00002C4.3999 6.2122 4.31562 6.41568 4.16559 6.56571C4.01556 6.71574 3.81208 6.80002 3.5999 6.80002C3.38773 6.80002 3.18425 6.71574 3.03422 6.56571C2.88419 6.41568 2.7999 6.2122 2.7999 6.00002C2.7999 5.78785 2.88419 5.58437 3.03422 5.43434C3.18425 5.28431 3.38773 5.20002 3.5999 5.20002C3.81208 5.20002 4.01556 5.28431 4.16559 5.43434C4.31562 5.58437 4.3999 5.78785 4.3999 6.00002ZM3.5999 9.20003C3.38773 9.20003 3.18425 9.11574 3.03422 8.96571C2.88419 8.81568 2.7999 8.6122 2.7999 8.40003C2.7999 8.18785 2.88419 7.98437 3.03422 7.83434C3.18425 7.68431 3.38773 7.60003 3.5999 7.60003C3.81208 7.60003 4.01556 7.68431 4.16559 7.83434C4.31562 7.98437 4.3999 8.18785 4.3999 8.40003C4.3999 8.6122 4.31562 8.81568 4.16559 8.96571C4.01556 9.11574 3.81208 9.20003 3.5999 9.20003ZM6.7999 6.00002C6.7999 6.2122 6.71562 6.41568 6.56559 6.56571C6.41556 6.71574 6.21208 6.80002 5.9999 6.80002C5.78773 6.80002 5.58425 6.71574 5.43422 6.56571C5.28419 6.41568 5.1999 6.2122 5.1999 6.00002C5.1999 5.78785 5.28419 5.58437 5.43422 5.43434C5.58425 5.28431 5.78773 5.20002 5.9999 5.20002C6.21208 5.20002 6.41556 5.28431 6.56559 5.43434C6.71562 5.58437 6.7999 5.78785 6.7999 6.00002ZM5.9999 9.20003C5.78773 9.20003 5.58425 9.11574 5.43422 8.96571C5.28419 8.81568 5.1999 8.6122 5.1999 8.40003C5.1999 8.18785 5.28419 7.98437 5.43422 7.83434C5.58425 7.68431 5.78773 7.60003 5.9999 7.60003C6.21208 7.60003 6.41556 7.68431 6.56559 7.83434C6.71562 7.98437 6.7999 8.18785 6.7999 8.40003C6.7999 8.6122 6.71562 8.81568 6.56559 8.96571C6.41556 9.11574 6.21208 9.20003 5.9999 9.20003ZM9.1999 6.00002C9.1999 6.2122 9.11562 6.41568 8.96559 6.56571C8.81556 6.71574 8.61208 6.80002 8.3999 6.80002C8.18773 6.80002 7.98425 6.71574 7.83422 6.56571C7.68419 6.41568 7.5999 6.2122 7.5999 6.00002C7.5999 5.78785 7.68419 5.58437 7.83422 5.43434C7.98425 5.28431 8.18773 5.20002 8.3999 5.20002C8.61208 5.20002 8.81556 5.28431 8.96559 5.43434C9.11562 5.58437 9.1999 5.78785 9.1999 6.00002Z" fill="#9497A1"/>
</svg>
