<svg width="16" height="16" viewBox="0 0 16 16" fill="none" xmlns="http://www.w3.org/2000/svg">
<path d="M8.00031 0.320007C3.75871 0.320007 0.320312 3.75841 0.320312 8.00001C0.320312 12.2416 3.75871 15.68 8.00031 15.68C12.2419 15.68 15.6803 12.2416 15.6803 8.00001C15.6803 3.75841 12.2419 0.320007 8.00031 0.320007ZM7.55791 11.2968C7.07551 11.5312 6.55631 11.556 6.35551 11.556H6.25231C5.93871 11.556 4.37791 11.484 4.37791 10.0624C4.37791 8.66561 6.07791 8.55601 6.59871 8.55601H6.61231C6.31151 8.15441 6.37391 7.74961 6.37391 7.74961C6.33662 7.75179 6.29927 7.75286 6.26191 7.75281C6.06591 7.75281 5.68751 7.72161 5.36271 7.51201C4.96431 7.25601 4.76271 6.82001 4.76271 6.21681C4.76271 4.51201 6.62431 4.44321 6.64271 4.44161H8.50191V4.48241C8.50191 4.69041 8.12831 4.73121 7.87391 4.76561C7.78751 4.77841 7.61391 4.79521 7.56511 4.82001C8.03631 5.07201 8.11231 5.46721 8.11231 6.05601C8.11231 6.72641 7.84991 7.08081 7.57151 7.32961C7.39871 7.48401 7.26351 7.60481 7.26351 7.76721C7.26351 7.92641 7.44911 8.08881 7.66511 8.27841C8.01791 8.58961 8.50191 9.01281 8.50191 9.72721C8.50191 10.4656 8.18431 10.9936 7.55791 11.2968ZM11.6003 8.00001H10.4003V9.20001H9.60031V8.00001H8.40031V7.20001H9.60031V6.00001H10.4003V7.20001H11.6003V8.00001ZM6.57871 8.92001C6.5368 8.92002 6.4949 8.92163 6.45311 8.92481C6.11332 8.94438 5.78968 9.07637 5.53311 9.30001C5.29791 9.51281 5.17791 9.78161 5.19471 10.0528C5.23071 10.6216 5.84111 10.9544 6.58271 10.9016C7.31231 10.8488 7.79871 10.428 7.76351 9.85921C7.72991 9.32481 7.26511 8.92001 6.57871 8.92001ZM7.27791 5.82801C7.08431 5.14801 6.77231 4.94641 6.28751 4.94641C6.23506 4.94679 6.18288 4.95405 6.13231 4.96801C5.92191 5.02801 5.75471 5.20321 5.66191 5.46401C5.56671 5.72801 5.56111 6.00321 5.64271 6.31681C5.79071 6.87761 6.18911 7.28401 6.59071 7.28401C6.64323 7.28452 6.69553 7.27724 6.74591 7.26241C7.18511 7.13921 7.46031 6.46881 7.27791 5.82801Z" fill="#9497A1"/>
</svg>
