<svg width="16" height="16" viewBox="0 0 16 16" fill="none" xmlns="http://www.w3.org/2000/svg">
<path d="M8.00031 0.320007C3.75871 0.320007 0.320312 3.75841 0.320312 8.00001C0.320312 12.2416 3.75871 15.68 8.00031 15.68C12.2419 15.68 15.6803 12.2416 15.6803 8.00001C15.6803 3.75841 12.2419 0.320007 8.00031 0.320007ZM6.12031 11.1832H4.56511V6.17841H6.12031V11.1832ZM5.33311 5.56401C4.84191 5.56401 4.52431 5.21601 4.52431 4.78561C4.52431 4.34641 4.85151 4.00881 5.35311 4.00881C5.85471 4.00881 6.16191 4.34641 6.17151 4.78561C6.17151 5.21601 5.85471 5.56401 5.33311 5.56401ZM11.8003 11.1832H10.2451V8.40961C10.2451 7.76401 10.0195 7.32561 9.45711 7.32561C9.02751 7.32561 8.77231 7.62241 8.65951 7.90801C8.61791 8.00961 8.60751 8.15361 8.60751 8.29681V11.1824H7.05151V7.77441C7.05151 7.14961 7.03151 6.62721 7.01071 6.17761H8.36191L8.43311 6.87281H8.46431C8.66911 6.54641 9.17071 6.06481 10.0099 6.06481C11.0331 6.06481 11.8003 6.75041 11.8003 8.22401V11.1832Z" fill="#9497A1"/>
</svg>
