<svg width="13" height="12" viewBox="0 0 13 12" fill="none" xmlns="http://www.w3.org/2000/svg">
<path d="M7.9023 2.56641V0.862406C7.9023 0.478406 8.3263 0.272006 8.6143 0.486406L8.6639 0.529605L12.2615 4.06561C12.4295 4.23121 12.4447 4.49681 12.3071 4.68001L12.2615 4.73201L8.6639 8.27041C8.3935 8.53601 7.9543 8.36561 7.9063 8.00321L7.9023 7.93761V6.26081L7.6959 6.27921C6.2559 6.43361 4.8751 7.09841 3.5463 8.28481C3.2343 8.56321 2.7527 8.30081 2.8039 7.88001C3.2023 4.60801 4.8719 2.80401 7.7223 2.57841L7.9023 2.56641ZM2.3999 1.20001C1.86947 1.20001 1.36076 1.41072 0.985689 1.78579C0.610616 2.16086 0.399902 2.66957 0.399902 3.20001V9.60001C0.399902 10.1304 0.610616 10.6391 0.985689 11.0142C1.36076 11.3893 1.86947 11.6 2.3999 11.6H8.7999C9.33033 11.6 9.83904 11.3893 10.2141 11.0142C10.5892 10.6391 10.7999 10.1304 10.7999 9.60001V8.80001C10.7999 8.69392 10.7578 8.59218 10.6827 8.51716C10.6077 8.44215 10.506 8.40001 10.3999 8.40001C10.2938 8.40001 10.1921 8.44215 10.1171 8.51716C10.042 8.59218 9.9999 8.69392 9.9999 8.80001V9.60001C9.9999 9.91827 9.87347 10.2235 9.64843 10.4485C9.42339 10.6736 9.11816 10.8 8.7999 10.8H2.3999C2.08164 10.8 1.77642 10.6736 1.55137 10.4485C1.32633 10.2235 1.1999 9.91827 1.1999 9.60001V3.20001C1.1999 2.88175 1.32633 2.57652 1.55137 2.35148C1.77642 2.12643 2.08164 2.00001 2.3999 2.00001H4.7999C4.90599 2.00001 5.00773 1.95786 5.08275 1.88285C5.15776 1.80783 5.1999 1.70609 5.1999 1.60001C5.1999 1.49392 5.15776 1.39218 5.08275 1.31716C5.00773 1.24215 4.90599 1.20001 4.7999 1.20001H2.3999Z" fill="#9497A1"/>
</svg>
