<svg width="14" height="14" viewBox="0 0 14 14" fill="none" xmlns="http://www.w3.org/2000/svg">
<path d="M13.404 2.22642C13.4034 1.80442 13.2361 1.39976 12.9385 1.10054C12.641 0.801315 12.2372 0.63177 11.8152 0.628817L7.90324 0.603217C7.69164 0.601785 7.48185 0.642341 7.28604 0.722536C7.09022 0.802732 6.91225 0.920974 6.76244 1.07042L1.41684 6.40162C1.26797 6.55011 1.14983 6.72649 1.06917 6.92067C0.988518 7.11485 0.946926 7.32302 0.946778 7.53329C0.946629 7.74355 0.987926 7.95178 1.06831 8.14608C1.14869 8.34037 1.26658 8.51691 1.41524 8.66562L5.37444 12.6256C5.67448 12.9256 6.08137 13.0941 6.50564 13.0941C6.9299 13.0941 7.33679 12.9256 7.63684 12.6256L12.9416 7.32002C13.0905 7.17119 13.2085 6.99445 13.289 6.79993C13.3694 6.6054 13.4107 6.39692 13.4104 6.18642L13.404 2.22642ZM10.1992 4.60002C9.98706 4.60002 9.78358 4.51573 9.63355 4.3657C9.48352 4.21567 9.39924 4.01219 9.39924 3.80002C9.39924 3.58784 9.48352 3.38436 9.63355 3.23433C9.78358 3.0843 9.98706 3.00002 10.1992 3.00002C10.4114 3.00002 10.6149 3.0843 10.7649 3.23433C10.915 3.38436 10.9992 3.58784 10.9992 3.80002C10.9992 4.01219 10.915 4.21567 10.7649 4.3657C10.6149 4.51573 10.4114 4.60002 10.1992 4.60002Z" fill="#9497A1"/>
</svg>
