<svg width="12" height="14" viewBox="0 0 12 14" fill="none" xmlns="http://www.w3.org/2000/svg">
<path d="M5.9999 0.599976C5.15121 0.599976 4.33728 0.937118 3.73716 1.53723C3.13704 2.13735 2.7999 2.95128 2.7999 3.79998C2.7999 4.64867 3.13704 5.4626 3.73716 6.06272C4.33728 6.66283 5.15121 6.99998 5.9999 6.99998C6.8486 6.99998 7.66253 6.66283 8.26264 6.06272C8.86276 5.4626 9.1999 4.64867 9.1999 3.79998C9.1999 2.95128 8.86276 2.13735 8.26264 1.53723C7.66253 0.937118 6.8486 0.599976 5.9999 0.599976ZM2.0071 7.79998C1.79641 7.79913 1.58763 7.83989 1.39272 7.91991C1.19782 7.99993 1.02063 8.11764 0.87131 8.26629C0.721994 8.41493 0.60349 8.5916 0.522595 8.78614C0.441701 8.98068 0.400006 9.18928 0.399902 9.39997C0.399902 10.7528 1.0663 11.7728 2.1079 12.4376C3.1335 13.0912 4.5159 13.4 5.9999 13.4C7.4839 13.4 8.8663 13.0912 9.8919 12.4376C10.9335 11.7736 11.5999 10.752 11.5999 9.39997C11.5999 8.97563 11.4313 8.56866 11.1313 8.2686C10.8312 7.96855 10.4242 7.79998 9.9999 7.79998H2.0071Z" fill="#9497A1"/>
</svg>
