<svg width="14" height="12" viewBox="0 0 14 12" fill="none" xmlns="http://www.w3.org/2000/svg">
<path d="M13.3998 2.39999C13.3999 2.72794 13.3193 3.05087 13.1652 3.34035C13.0111 3.62984 12.7882 3.87698 12.5161 4.06002C12.244 4.24306 11.931 4.35638 11.6048 4.39C11.2786 4.42361 10.9491 4.37649 10.6454 4.25279L9.61979 5.79119C9.81481 5.98822 9.96673 6.22364 10.0659 6.4825C10.1651 6.74136 10.2094 7.01802 10.196 7.29492C10.1826 7.57181 10.1118 7.8429 9.98801 8.09096C9.86426 8.33902 9.69029 8.55865 9.47714 8.7359C9.26399 8.91316 9.01632 9.04416 8.74985 9.12061C8.48338 9.19705 8.20392 9.21726 7.92923 9.17996C7.65453 9.14265 7.39058 9.04865 7.15415 8.90391C6.91771 8.75918 6.71395 8.56687 6.55579 8.33919L4.55899 9.1952C4.65896 9.68061 4.57514 10.1859 4.32378 10.613C4.07241 11.0401 3.67142 11.3587 3.19852 11.507C2.72563 11.6553 2.21451 11.6227 1.76427 11.4156C1.31402 11.2085 0.956709 10.8416 0.761601 10.386C0.566494 9.93039 0.547487 9.4186 0.708265 8.9498C0.869043 8.481 1.19815 8.08859 1.6318 7.84865C2.06544 7.6087 2.57273 7.53831 3.05532 7.65111C3.53792 7.76392 3.96144 8.05189 4.24379 8.4592L6.24059 7.60399C6.16705 7.24895 6.19141 6.88059 6.31106 6.53832C6.43072 6.19606 6.64117 5.89275 6.9199 5.66086C7.19863 5.42897 7.53516 5.27721 7.89348 5.22182C8.2518 5.16643 8.61845 5.20949 8.95419 5.34639L9.97979 3.80879C9.74843 3.57553 9.5781 3.28887 9.48385 2.97414C9.3896 2.65941 9.37434 2.32631 9.43941 2.00428C9.50448 1.68225 9.64788 1.38121 9.85693 1.12776C10.066 0.874318 10.3343 0.676276 10.638 0.551142C10.9418 0.426009 11.2717 0.377636 11.5986 0.410301C11.9255 0.442965 12.2394 0.555661 12.5124 0.738426C12.7854 0.921192 13.0092 1.1684 13.1639 1.4582C13.3187 1.74799 13.3997 2.07146 13.3998 2.39999Z" fill="#9497A1"/>
</svg>
