<svg width="16" height="16" viewBox="0 0 16 16" fill="none" xmlns="http://www.w3.org/2000/svg">
<path d="M9.28271 7.86641L7.48591 7.02801C7.32911 6.95521 7.20031 7.03681 7.20031 7.21041V8.78961C7.20031 8.96321 7.32911 9.04481 7.48591 8.97201L9.28191 8.13361C9.43951 8.06001 9.43951 7.94001 9.28271 7.86641ZM8.00031 0.320007C3.75871 0.320007 0.320312 3.75841 0.320312 8.00001C0.320312 12.2416 3.75871 15.68 8.00031 15.68C12.2419 15.68 15.6803 12.2416 15.6803 8.00001C15.6803 3.75841 12.2419 0.320007 8.00031 0.320007ZM8.00031 11.12C4.06911 11.12 4.00031 10.7656 4.00031 8.00001C4.00031 5.23441 4.06911 4.88001 8.00031 4.88001C11.9315 4.88001 12.0003 5.23441 12.0003 8.00001C12.0003 10.7656 11.9315 11.12 8.00031 11.12Z" fill="#9497A1"/>
</svg>
