<svg width="22" height="13" viewBox="0 0 22 13" fill="none" xmlns="http://www.w3.org/2000/svg">
<path d="M0.5 6.3752C0.499678 6.20602 0.536915 6.03888 0.609028 5.88583C0.681141 5.73279 0.786328 5.59766 0.917 5.4902L5.336 1.0802C5.54694 0.869528 5.83287 0.751193 6.131 0.751193C6.42913 0.751193 6.71506 0.869528 6.926 1.0802C7.03023 1.1844 7.1129 1.3081 7.16931 1.44425C7.22572 1.5804 7.25475 1.72633 7.25475 1.8737C7.25475 2.02108 7.22572 2.16701 7.16931 2.30316C7.1129 2.43931 7.03023 2.56301 6.926 2.6672L4.349 5.2502L20.375 5.2502C20.6734 5.2502 20.9595 5.36873 21.1705 5.57971C21.3815 5.79069 21.5 6.07684 21.5 6.37521C21.5 6.67357 21.3815 6.95972 21.1705 7.1707C20.9595 7.38168 20.6734 7.50021 20.375 7.5002L4.334 7.5002L6.9335 10.0832C7.03795 10.1874 7.12082 10.3112 7.17736 10.4475C7.2339 10.5838 7.263 10.7299 7.263 10.8775C7.263 11.025 7.2339 11.1711 7.17736 11.3074C7.12082 11.4437 7.03795 11.5675 6.9335 11.6717C6.82902 11.7762 6.70497 11.8592 6.56844 11.9158C6.4319 11.9723 6.28555 12.0015 6.13775 12.0015C5.98995 12.0015 5.8436 11.9723 5.70706 11.9158C5.57053 11.8592 5.44647 11.7762 5.342 11.6717L0.829998 7.1657C0.72469 7.06288 0.641192 6.93988 0.584492 6.80406C0.527792 6.66824 0.499056 6.52238 0.5 6.3752Z" fill="#002B4E"/>
</svg>
