<svg width="22" height="13" viewBox="0 0 22 13" fill="none" xmlns="http://www.w3.org/2000/svg">
<path d="M21.5 6.3752C21.5003 6.20602 21.4631 6.03888 21.391 5.88583C21.3189 5.73279 21.2137 5.59766 21.083 5.4902L16.664 1.08021C16.4531 0.869529 16.1671 0.751194 15.869 0.751194C15.5709 0.751194 15.2849 0.869529 15.074 1.08021C14.9698 1.1844 14.8871 1.3081 14.8307 1.44425C14.7743 1.5804 14.7452 1.72633 14.7452 1.8737C14.7452 2.02108 14.7743 2.16701 14.8307 2.30316C14.8871 2.43931 14.9698 2.56301 15.074 2.6672L17.651 5.2502L1.625 5.2502C1.32663 5.25021 1.04048 5.36873 0.829504 5.57971C0.618526 5.79069 0.5 6.07684 0.5 6.37521C0.5 6.67357 0.618526 6.95972 0.829505 7.1707C1.04048 7.38168 1.32663 7.50021 1.625 7.5002L17.666 7.5002L15.0665 10.0832C14.9621 10.1874 14.8792 10.3112 14.8226 10.4475C14.7661 10.5838 14.737 10.7299 14.737 10.8775C14.737 11.025 14.7661 11.1711 14.8226 11.3074C14.8792 11.4437 14.9621 11.5675 15.0665 11.6717C15.171 11.7762 15.295 11.8592 15.4316 11.9158C15.5681 11.9723 15.7145 12.0015 15.8622 12.0015C16.01 12.0015 16.1564 11.9723 16.2929 11.9158C16.4295 11.8592 16.5535 11.7762 16.658 11.6717L21.17 7.1657C21.2753 7.06288 21.3588 6.93988 21.4155 6.80406C21.4722 6.66824 21.5009 6.52238 21.5 6.3752Z" fill="#002B4E"/>
</svg>
