<svg width="17" height="12" viewBox="0 0 17 12" fill="none" xmlns="http://www.w3.org/2000/svg">
<path d="M16.4999 0.409577C16.8077 0.682827 16.9874 1.05968 16.9994 1.45728C17.0113 1.85487 16.8547 2.24066 16.5638 2.52982L7.51116 11.5309C7.36444 11.6765 7.18813 11.793 6.99264 11.8736C6.79716 11.9541 6.58646 11.9971 6.373 11.9999C6.15955 12.0027 5.94766 11.9652 5.74985 11.8898C5.55205 11.8144 5.37235 11.7026 5.22136 11.5609L0.42876 7.06034C0.146572 6.77596 -0.00705336 6.39983 0.000248889 6.01118C0.00755114 5.62253 0.175211 5.25172 0.467907 4.97686C0.760603 4.702 1.15548 4.54456 1.56935 4.5377C1.98322 4.53085 2.38377 4.67511 2.68661 4.9401L6.31833 8.34849L14.2421 0.469584C14.5331 0.180545 14.9344 0.0118539 15.3578 0.000601156C15.7812 -0.0106516 16.192 0.136455 16.4999 0.409577Z" fill="#185CFF"/>
</svg>
