<svg width="14" height="8" viewBox="0 0 14 8" fill="none" xmlns="http://www.w3.org/2000/svg">
<path d="M14 4.25014C14.0002 4.13735 13.9754 4.02592 13.9273 3.92389C13.8792 3.82186 13.8091 3.73178 13.722 3.66014L10.776 0.720137C10.6354 0.579686 10.4448 0.500796 10.246 0.500796C10.0472 0.500796 9.85662 0.579686 9.716 0.720137C9.64652 0.789598 9.5914 0.872068 9.55379 0.962834C9.51619 1.0536 9.49683 1.15089 9.49683 1.24914C9.49683 1.34738 9.51619 1.44467 9.55379 1.53544C9.5914 1.62621 9.64652 1.70867 9.716 1.77814L11.434 3.50014L0.75 3.50014C0.551087 3.50014 0.360322 3.57915 0.21967 3.71981C0.0790174 3.86046 -1.72649e-07 4.05122 -1.63954e-07 4.25014C-1.5526e-07 4.44905 0.0790174 4.63981 0.21967 4.78047C0.360322 4.92112 0.551087 5.00014 0.75 5.00014L11.444 5.00014L9.711 6.72214C9.64137 6.79162 9.58612 6.87415 9.54843 6.96501C9.51073 7.05587 9.49133 7.15327 9.49133 7.25164C9.49133 7.35 9.51073 7.44741 9.54843 7.53827C9.58612 7.62912 9.64137 7.71166 9.711 7.78114C9.78065 7.85083 9.86335 7.90612 9.95438 7.94384C10.0454 7.98156 10.143 8.00098 10.2415 8.00098C10.34 8.00098 10.4376 7.98156 10.5286 7.94384C10.6196 7.90612 10.7023 7.85083 10.772 7.78114L13.78 4.77714C13.8502 4.70859 13.9059 4.62659 13.9437 4.53604C13.9815 4.44549 14.0006 4.34826 14 4.25014Z" fill="#F0F9FF"/>
</svg>
