<svg width="20" height="14" viewBox="0 0 20 14" fill="none" xmlns="http://www.w3.org/2000/svg">
<path d="M1.00085 12H19.0008C19.2557 12.0003 19.5009 12.0979 19.6862 12.2728C19.8715 12.4478 19.9831 12.687 19.998 12.9414C20.013 13.1958 19.9302 13.4464 19.7666 13.6418C19.603 13.8373 19.3709 13.9629 19.1178 13.993L19.0008 14H1.00085C0.745966 13.9997 0.500813 13.9021 0.315477 13.7272C0.130141 13.5522 0.0186103 13.313 0.00367316 13.0586C-0.011264 12.8042 0.0715199 12.5536 0.23511 12.3582C0.3987 12.1627 0.630749 12.0371 0.883845 12.007L1.00085 12H19.0008H1.00085ZM1.00085 6L19.0008 5.998C19.2557 5.99828 19.5009 6.09588 19.6862 6.27085C19.8715 6.44582 19.9831 6.68495 19.998 6.93939C20.013 7.19384 19.9302 7.44438 19.7666 7.63983C19.603 7.83529 19.3709 7.9609 19.1178 7.991L19.0008 7.998L1.00085 8C0.745966 7.99972 0.500813 7.90212 0.315477 7.72715C0.130141 7.55218 0.0186103 7.31305 0.00367316 7.05861C-0.011264 6.80416 0.0715199 6.55362 0.23511 6.35817C0.3987 6.16271 0.630749 6.0371 0.883845 6.007L1.00085 6L19.0008 5.998L1.00085 6ZM1.00085 0H19.0008C19.2557 0.000282707 19.5009 0.0978789 19.6862 0.272848C19.8715 0.447817 19.9831 0.686953 19.998 0.941395C20.013 1.19584 19.9302 1.44638 19.7666 1.64183C19.603 1.83729 19.3709 1.9629 19.1178 1.993L19.0008 2H1.00085C0.745966 1.99972 0.500813 1.90212 0.315477 1.72715C0.130141 1.55218 0.0186103 1.31305 0.00367316 1.05861C-0.011264 0.804163 0.0715199 0.553621 0.23511 0.358168C0.3987 0.162715 0.630749 0.0371036 0.883845 0.00699997L1.00085 0H19.0008H1.00085Z" fill="white"/>
</svg>
