<svg width="17" height="17" viewBox="0 0 17 17" fill="none" xmlns="http://www.w3.org/2000/svg">
<path d="M0.209999 1.38708L0.292999 1.29308C0.465192 1.1209 0.694291 1.01747 0.937317 1.00219C1.18034 0.986911 1.42059 1.06083 1.613 1.21008L1.707 1.29308L8 7.58508L14.293 1.29308C14.3852 1.19757 14.4956 1.12139 14.6176 1.06898C14.7396 1.01657 14.8708 0.988985 15.0036 0.987831C15.1364 0.986677 15.2681 1.01198 15.391 1.06226C15.5138 1.11254 15.6255 1.18679 15.7194 1.28069C15.8133 1.37458 15.8875 1.48623 15.9378 1.60913C15.9881 1.73202 16.0134 1.8637 16.0122 1.99648C16.0111 2.12926 15.9835 2.26048 15.9311 2.38249C15.8787 2.50449 15.8025 2.61483 15.707 2.70708L9.415 9.00008L15.707 15.2931C15.8792 15.4653 15.9826 15.6944 15.9979 15.9374C16.0132 16.1804 15.9393 16.4207 15.79 16.6131L15.707 16.7071C15.5348 16.8793 15.3057 16.9827 15.0627 16.998C14.8197 17.0133 14.5794 16.9393 14.387 16.7901L14.293 16.7071L8 10.4151L1.707 16.7071C1.5184 16.8892 1.26579 16.99 1.0036 16.9878C0.7414 16.9855 0.490588 16.8803 0.30518 16.6949C0.119772 16.5095 0.0146028 16.2587 0.0123243 15.9965C0.0100459 15.7343 0.110841 15.4817 0.292999 15.2931L6.585 9.00008L0.292999 2.70708C0.120822 2.53489 0.0173907 2.30579 0.00210954 2.06276C-0.0131716 1.81974 0.0607473 1.57949 0.209999 1.38708L0.292999 1.29308L0.209999 1.38708Z" fill="#292D33"/>
</svg>
