<svg width="86" height="71" viewBox="0 0 86 71" fill="none" xmlns="http://www.w3.org/2000/svg">
<path d="M79.3346 37.4256C79.3346 42.7583 75.7976 48.0881 68.7618 52.1573C54.6638 60.2987 31.8072 60.3002 17.7092 52.1573C10.1857 47.8109 6.71792 42.0241 7.22636 36.3331C7.18184 36.538 7.14839 36.7452 7.12615 36.9538C6.44822 44.3831 8.73402 49.4858 17.7092 54.6638C31.8072 62.8066 54.6638 62.8052 68.7618 54.6638C76.8336 50.0004 79.4997 44.0867 79.3346 37.4256Z" fill="url(#paint0_linear_11061_1351)"/>
<g filter="url(#filter0_di_11061_1351)">
<path d="M43.2371 58.2641C63.1745 58.2641 79.3369 48.9291 79.3369 37.4138C79.3369 25.8984 63.1745 16.5634 43.2371 16.5634C23.2998 16.5634 7.13733 25.8984 7.13733 37.4138C7.13733 48.9291 23.2998 58.2641 43.2371 58.2641Z" fill="url(#paint1_radial_11061_1351)"/>
<path d="M79.2714 37.4138C79.2714 43.1381 75.2536 48.333 68.7308 52.1004C62.2096 55.8669 53.1964 58.1986 43.2371 58.1986C33.2779 58.1986 24.2646 55.8669 17.7435 52.1004C11.2206 48.333 7.20288 43.1381 7.20288 37.4138C7.20288 31.6894 11.2206 26.4946 17.7435 22.7271C24.2646 18.9607 33.2779 16.629 43.2371 16.629C53.1964 16.629 62.2096 18.9607 68.7308 22.7271C75.2536 26.4946 79.2714 31.6894 79.2714 37.4138Z" stroke="url(#paint2_linear_11061_1351)" stroke-width="0.131111" stroke-linejoin="round"/>
</g>
<g style="mix-blend-mode:multiply" filter="url(#filter1_f_11061_1351)">
<path d="M60.7316 33.2752C60.7399 33.3676 60.7361 33.4607 60.7201 33.552C59.7724 37.4008 56.4132 40.8855 51.3182 43.3221C45.6305 45.8659 39.4461 47.0133 33.2535 46.6735C27.2556 46.5487 21.3833 44.8816 16.171 41.824C11.7491 39.0114 9.26845 35.3106 9.21381 31.4618V33.8747C9.22962 37.7605 11.7189 41.4969 16.1782 44.3376C21.3888 47.3918 27.2586 49.0564 33.2535 49.1797C39.4487 49.5194 45.6357 48.371 51.3254 45.8253C56.4204 43.3917 59.7796 39.904 60.7273 36.0552C60.8136 35.6955 60.7503 33.2811 60.7503 33.2811C60.7503 33.2811 60.7374 33.2826 60.7316 33.2752Z" fill="#083090" fill-opacity="0.4"/>
<path d="M67.9443 23.5674V23.7998C67.9069 24.8952 66.3207 25.699 64.4786 25.699H42.0552C41.1447 25.7173 40.2448 25.4957 39.4409 25.0551C39.1525 24.9191 38.9024 24.7099 38.7143 24.447C38.5261 24.1842 38.406 23.8764 38.3652 23.5526V26.0143C38.3967 26.3488 38.5136 26.6688 38.704 26.9418C38.8945 27.2148 39.1517 27.431 39.4495 27.5686C40.2536 28.0086 41.1534 28.2302 42.0639 28.2126H64.4844C66.3265 28.2126 67.9127 27.4088 67.95 26.3133L67.9443 23.5674Z" fill="#083090" fill-opacity="0.4"/>
</g>
<g filter="url(#filter2_b_11061_1351)">
<path d="M60.682 30.9446C60.6904 31.037 60.6865 31.1301 60.6704 31.2214C59.7158 35.0703 56.3322 38.5549 51.2002 40.9915C45.4712 43.5353 39.2419 44.6827 33.0044 44.343C26.963 44.2181 21.048 42.551 15.7979 39.4934C11.3439 36.6808 8.84523 32.98 8.79019 29.1312V31.5441C8.80612 35.43 11.3134 39.1663 15.8052 42.007C21.0536 45.0613 26.966 46.7258 33.0044 46.8491C39.2445 47.1889 45.4764 46.0405 51.2075 43.4947C56.3394 41.0611 59.7231 37.5735 60.6776 33.7246C60.7645 33.3649 60.7008 30.9505 60.7008 30.9505C60.7008 30.9505 60.6878 30.952 60.682 30.9446Z" fill="url(#paint3_linear_11061_1351)"/>
<path d="M67.9462 21.2368V21.4692C67.9086 22.5646 66.3109 23.3684 64.4554 23.3684H41.8693C40.9521 23.3868 40.0456 23.1651 39.2359 22.7245C38.9454 22.5886 38.6936 22.3793 38.504 22.1165C38.3145 21.8536 38.1935 21.5458 38.1525 21.222V23.6837C38.1842 24.0183 38.3019 24.3382 38.4937 24.6112C38.6856 24.8842 38.9446 25.1005 39.2446 25.2381C40.0546 25.678 40.9609 25.8996 41.878 25.882H64.4612C66.3167 25.882 67.9144 25.0782 67.952 23.9828L67.9462 21.2368Z" fill="url(#paint4_linear_11061_1351)"/>
</g>
<g filter="url(#filter3_bi_11061_1351)">
<path d="M31.1377 13.7963C33.1757 13.6261 34.853 14.6283 34.853 15.8407V27.3634C34.8526 27.8049 35.0238 28.2284 35.3288 28.5409C35.6338 28.8535 36.0477 29.0295 36.4797 29.0303H57.2045C59.2614 29.0303 60.959 30.0191 60.6693 31.2211C59.7147 35.07 56.3311 38.5546 51.1991 40.9912C45.4701 43.535 39.2408 44.6824 33.0033 44.3427C26.9614 44.2175 21.0461 42.5505 15.7954 39.4931C11.3051 36.6524 8.79778 32.9146 8.7804 29.0303C8.7804 25.3295 11.0415 21.7516 15.1537 18.9538C19.9888 15.9162 25.4825 14.1447 31.1478 13.7963H31.1377ZM64.4527 23.3682C66.3082 23.3682 67.9059 22.5644 67.9435 21.469V21.1729C67.9084 19.0168 67.1977 16.929 65.9157 15.2161C64.3586 13.1384 62.3871 11.4228 60.1319 10.1831C57.4248 8.66057 54.5173 7.54431 51.499 6.86864C48.1724 6.1023 44.7693 5.73811 41.3596 5.78357C39.5041 5.80577 38.1411 6.7517 38.1411 7.84417V21.167C38.1725 21.5016 38.2901 21.8217 38.482 22.0948C38.6738 22.3678 38.933 22.584 39.2332 22.7213C40.0429 23.1619 40.9494 23.3836 41.8666 23.3653L64.4527 23.3682Z" fill="url(#paint5_linear_11061_1351)" fill-opacity="0.35"/>
<path d="M34.7875 27.3634C34.7871 27.8217 34.9647 28.2618 35.2819 28.5867C35.599 28.9117 36.0298 29.095 36.4796 29.0958H36.4797H57.2045C58.2237 29.0958 59.1497 29.341 59.7825 29.7308C60.4166 30.1214 60.7407 30.6447 60.6056 31.2056C59.6575 35.0279 56.2935 38.4997 51.1717 40.9317C45.4524 43.471 39.2337 44.6164 33.0069 44.2772L33.0047 44.2771C26.9744 44.1522 21.0703 42.4885 15.8294 39.4371C11.351 36.6036 8.86326 32.8839 8.84595 29.0301C8.84601 25.3584 11.0892 21.7987 15.1896 19.0086C20.0152 15.9772 25.4979 14.2094 31.1518 13.8618L31.1518 13.8609C32.1559 13.7787 33.068 13.9846 33.7274 14.3571C34.3901 14.7315 34.7875 15.2671 34.7875 15.8407V27.3634ZM34.7875 27.3634L34.853 27.3634H34.7875V27.3634ZM60.0998 10.2402L60.1003 10.2405C62.3473 11.4757 64.3117 13.1852 65.8632 15.2555C67.1367 16.957 67.843 19.0312 67.878 21.1735V21.4678C67.8598 21.981 67.4755 22.4387 66.8491 22.7715C66.2242 23.1034 65.3719 23.3027 64.4527 23.3027L41.8666 23.2997L41.8653 23.2997C40.9596 23.3178 40.0643 23.0989 39.2646 22.6638L39.2646 22.6636L39.2605 22.6617C38.971 22.5293 38.7209 22.3207 38.5356 22.0571C38.351 21.7943 38.2374 21.4862 38.2066 21.1639V7.84417C38.2066 7.32725 38.5293 6.83561 39.0905 6.46733C39.651 6.09949 40.4429 5.8601 41.3604 5.84912L41.3605 5.84912C44.7649 5.80373 48.1628 6.16736 51.4842 6.93252L51.4846 6.93261C54.4967 7.60688 57.3982 8.72083 60.0998 10.2402Z" stroke="url(#paint6_linear_11061_1351)" stroke-width="0.131111"/>
</g>
<defs>
<filter id="filter0_di_11061_1351" x="0.581774" y="15.2523" width="85.3107" height="54.8119" filterUnits="userSpaceOnUse" color-interpolation-filters="sRGB">
<feFlood flood-opacity="0" result="BackgroundImageFix"/>
<feColorMatrix in="SourceAlpha" type="matrix" values="0 0 0 0 0 0 0 0 0 0 0 0 0 0 0 0 0 0 127 0" result="hardAlpha"/>
<feOffset dy="5.24444"/>
<feGaussianBlur stdDeviation="3.27778"/>
<feComposite in2="hardAlpha" operator="out"/>
<feColorMatrix type="matrix" values="0 0 0 0 0.0980392 0 0 0 0 0.211765 0 0 0 0 0.482353 0 0 0 0.5 0"/>
<feBlend mode="normal" in2="BackgroundImageFix" result="effect1_dropShadow_11061_1351"/>
<feBlend mode="normal" in="SourceGraphic" in2="effect1_dropShadow_11061_1351" result="shape"/>
<feColorMatrix in="SourceAlpha" type="matrix" values="0 0 0 0 0 0 0 0 0 0 0 0 0 0 0 0 0 0 127 0" result="hardAlpha"/>
<feOffset/>
<feGaussianBlur stdDeviation="2.62222"/>
<feComposite in2="hardAlpha" operator="arithmetic" k2="-1" k3="1"/>
<feColorMatrix type="matrix" values="0 0 0 0 1 0 0 0 0 1 0 0 0 0 1 0 0 0 0.25 0"/>
<feBlend mode="normal" in2="shape" result="effect2_innerShadow_11061_1351"/>
</filter>
<filter id="filter1_f_11061_1351" x="6.59158" y="20.9303" width="63.9807" height="30.9299" filterUnits="userSpaceOnUse" color-interpolation-filters="sRGB">
<feFlood flood-opacity="0" result="BackgroundImageFix"/>
<feBlend mode="normal" in="SourceGraphic" in2="BackgroundImageFix" result="shape"/>
<feGaussianBlur stdDeviation="1.31111" result="effect1_foregroundBlur_11061_1351"/>
</filter>
<filter id="filter2_b_11061_1351" x="7.47908" y="19.9109" width="61.7841" height="28.3077" filterUnits="userSpaceOnUse" color-interpolation-filters="sRGB">
<feFlood flood-opacity="0" result="BackgroundImageFix"/>
<feGaussianBlur in="BackgroundImageFix" stdDeviation="0.655556"/>
<feComposite in2="SourceAlpha" operator="in" result="effect1_backgroundBlur_11061_1351"/>
<feBlend mode="normal" in="SourceGraphic" in2="effect1_backgroundBlur_11061_1351" result="shape"/>
</filter>
<filter id="filter3_bi_11061_1351" x="4.84706" y="1.84645" width="67.0298" height="46.4879" filterUnits="userSpaceOnUse" color-interpolation-filters="sRGB">
<feFlood flood-opacity="0" result="BackgroundImageFix"/>
<feGaussianBlur in="BackgroundImageFix" stdDeviation="1.96667"/>
<feComposite in2="SourceAlpha" operator="in" result="effect1_backgroundBlur_11061_1351"/>
<feBlend mode="normal" in="SourceGraphic" in2="effect1_backgroundBlur_11061_1351" result="shape"/>
<feColorMatrix in="SourceAlpha" type="matrix" values="0 0 0 0 0 0 0 0 0 0 0 0 0 0 0 0 0 0 127 0" result="hardAlpha"/>
<feOffset/>
<feGaussianBlur stdDeviation="0.983333"/>
<feComposite in2="hardAlpha" operator="arithmetic" k2="-1" k3="1"/>
<feColorMatrix type="matrix" values="0 0 0 0 1 0 0 0 0 1 0 0 0 0 1 0 0 0 0.5 0"/>
<feBlend mode="normal" in2="shape" result="effect2_innerShadow_11061_1351"/>
</filter>
<linearGradient id="paint0_linear_11061_1351" x1="75.8984" y1="24.5375" x2="9.21087" y2="45.9938" gradientUnits="userSpaceOnUse">
<stop stop-color="#00298D"/>
<stop offset="0.189268" stop-color="#2349A7"/>
<stop offset="0.646435" stop-color="#3155AD"/>
<stop offset="1" stop-color="#032C91"/>
</linearGradient>
<radialGradient id="paint1_radial_11061_1351" cx="0" cy="0" r="1" gradientUnits="userSpaceOnUse" gradientTransform="translate(43.2371 37.4138) rotate(90) scale(28.6214 49.5543)">
<stop offset="0.0520833" stop-color="#062E8D"/>
<stop offset="1" stop-color="#2968FE"/>
</radialGradient>
<linearGradient id="paint2_linear_11061_1351" x1="31.7221" y1="15.3648" x2="51.3231" y2="57.0521" gradientUnits="userSpaceOnUse">
<stop stop-color="white" stop-opacity="0"/>
<stop offset="1" stop-color="white" stop-opacity="0.43"/>
</linearGradient>
<linearGradient id="paint3_linear_11061_1351" x1="60.7754" y1="55.0366" x2="41.4706" y2="10.262" gradientUnits="userSpaceOnUse">
<stop stop-color="#E9F7FF"/>
<stop offset="0.579246" stop-color="#D7F0FF" stop-opacity="0.57"/>
<stop offset="0.956471" stop-color="#BDE7FF" stop-opacity="0"/>
</linearGradient>
<linearGradient id="paint4_linear_11061_1351" x1="67.9819" y1="28.0145" x2="65.3414" y2="14.6122" gradientUnits="userSpaceOnUse">
<stop stop-color="#E9F7FF"/>
<stop offset="0.579246" stop-color="#D7F0FF" stop-opacity="0.57"/>
<stop offset="0.956471" stop-color="#BDE7FF" stop-opacity="0"/>
</linearGradient>
<linearGradient id="paint5_linear_11061_1351" x1="8.7804" y1="2.44454" x2="68.6199" y2="43.4132" gradientUnits="userSpaceOnUse">
<stop offset="0.0529546" stop-color="#0D7BE0"/>
<stop offset="0.461273" stop-color="#79CFFF"/>
<stop offset="1" stop-color="#79CFFF"/>
</linearGradient>
<linearGradient id="paint6_linear_11061_1351" x1="66.3956" y1="50.0423" x2="9.47366" y2="14.9786" gradientUnits="userSpaceOnUse">
<stop stop-color="#E9F7FF"/>
<stop offset="0.923987" stop-color="#BDE7FF" stop-opacity="0"/>
</linearGradient>
</defs>
</svg>
