<svg width="86" height="73" viewBox="0 0 86 73" fill="none" xmlns="http://www.w3.org/2000/svg">
<path d="M79.3346 40.2597C79.3346 45.5925 75.7976 50.9223 68.7618 54.9915C54.6638 63.1329 31.8072 63.1344 17.7092 54.9915C10.1857 50.6451 6.71792 44.8583 7.22636 39.1672C7.18184 39.3722 7.14839 39.5794 7.12615 39.7879C6.44822 47.2172 8.73402 52.32 17.7092 57.4979C31.8072 65.6408 54.6638 65.6393 68.7618 57.4979C76.8336 52.8345 79.4997 46.9209 79.3346 40.2597Z" fill="url(#paint0_linear_11061_1374)"/>
<g filter="url(#filter0_di_11061_1374)">
<path d="M43.2371 61.0983C63.1745 61.0983 79.3369 51.7633 79.3369 40.2479C79.3369 28.7326 63.1745 19.3976 43.2371 19.3976C23.2998 19.3976 7.13733 28.7326 7.13733 40.2479C7.13733 51.7633 23.2998 61.0983 43.2371 61.0983Z" fill="url(#paint1_radial_11061_1374)"/>
<path d="M79.2714 40.2479C79.2714 45.9723 75.2536 51.1672 68.7308 54.9346C62.2096 58.7011 53.1964 61.0327 43.2371 61.0327C33.2779 61.0327 24.2646 58.7011 17.7435 54.9346C11.2206 51.1672 7.20288 45.9723 7.20288 40.2479C7.20288 34.5236 11.2206 29.3287 17.7435 25.5613C24.2646 21.7948 33.2779 19.4631 43.2371 19.4631C53.1964 19.4631 62.2096 21.7948 68.7308 25.5613C75.2536 29.3287 79.2714 34.5236 79.2714 40.2479Z" stroke="url(#paint2_linear_11061_1374)" stroke-width="0.131111" stroke-linejoin="round"/>
</g>
<g style="mix-blend-mode:multiply" filter="url(#filter1_f_11061_1374)">
<path d="M21.4086 32.922H34.5104C35.2016 32.9352 35.8848 32.7704 36.4951 32.4432C36.721 32.3407 36.9161 32.1799 37.0608 31.9771C37.2054 31.7744 37.2944 31.5368 37.3188 31.2883L37.3063 29.3365C37.3063 17.5437 37.304 14.2173 37.304 29.3297C37.2798 29.5784 37.1908 29.8162 37.0462 30.0192C36.9016 30.2222 36.7064 30.3831 36.4803 30.4858C35.8696 30.812 35.1867 30.9768 34.4956 30.9645H21.4086" fill="#083090" fill-opacity="0.4"/>
<path d="M21.4102 43.9734C21.4202 44.2023 21.3554 44.4282 21.2256 44.6163C21.0679 44.8425 20.8625 45.0307 20.6241 45.1674C20.3358 45.3354 20.0244 45.4596 19.7001 45.5359C18.978 45.7089 18.2257 45.7089 17.5035 45.5359C17.1795 45.4598 16.8685 45.3356 16.5807 45.1674C16.3418 45.031 16.1359 44.8428 15.978 44.6163C15.8742 44.4584 15.8148 44.2751 15.806 44.0859V45.9228C15.795 46.1518 15.86 46.378 15.9906 46.5657C16.1486 46.7913 16.354 46.979 16.5921 47.1156C16.8803 47.2843 17.1916 47.4089 17.5161 47.4853C18.2382 47.6583 18.9905 47.6583 19.7126 47.4853C20.0367 47.4089 20.3477 47.2843 20.6355 47.1156C20.8741 46.9793 21.0799 46.7915 21.2381 46.5657C21.3677 46.3775 21.4326 46.1517 21.4227 45.9228" fill="#083090" fill-opacity="0.4"/>
<path d="M37.9924 54.7697C37.3769 55.0852 36.6961 55.2496 36.0055 55.2496C35.3149 55.2496 34.6341 55.0852 34.0186 54.7697L27.4198 50.9169C27.1936 50.8148 26.9743 50.654 26.8296 50.4511C26.6849 50.2483 26.5961 50.0105 26.5721 49.7618C26.5721 49.7618 26.5847 51.2819 26.5847 51.7136C26.6083 51.9623 26.6969 52.2002 26.8414 52.4033C26.9859 52.6063 27.1811 52.7672 27.4072 52.8697C27.4072 52.8697 33.4167 56.4101 34.0322 56.7249C34.6478 57.0396 35.3283 57.2037 36.0186 57.2037C36.7089 57.2037 37.3894 57.0396 38.0049 56.7249C38.2313 56.6226 38.4268 56.4618 38.5715 56.2587C38.7161 56.0556 38.8049 55.8176 38.8287 55.5688C38.8287 55.1348 38.8161 54.5263 38.8161 53.617C38.7918 53.8653 38.7028 54.1026 38.5581 54.305C38.4135 54.5074 38.2183 54.6677 37.9924 54.7697Z" fill="#083090" fill-opacity="0.4"/>
<path d="M70.604 35.1158C70.5808 35.3646 70.4924 35.6028 70.3479 35.8059C70.2034 36.009 70.0079 36.1698 69.7815 36.2719C69.1657 36.5866 68.485 36.7507 67.7945 36.7507C67.1041 36.7507 66.4234 36.5866 65.8076 36.2719L45.965 24.6995C45.7432 24.5976 45.5305 24.4451 45.387 24.2466C45.2435 24.0481 45.1497 23.8262 45.1215 23.5823C45.1215 23.9267 45.1306 25.1436 45.1306 25.5133C45.154 25.7621 45.2425 26.0002 45.387 26.2033C45.5315 26.4064 45.9531 26.6694 45.9531 26.6694L65.819 38.2293C66.4347 38.5441 67.1155 38.7081 67.8059 38.7081C68.4964 38.7081 69.1771 38.5441 69.7928 38.2293C70.0191 38.1271 70.2145 37.9663 70.359 37.7632C70.5035 37.5601 70.592 37.322 70.6154 37.0732C70.6177 36.6392 70.604 35.1158 70.604 35.1158Z" fill="#083090" fill-opacity="0.4"/>
<path d="M59.1749 42.4227C58.5591 42.7375 57.8908 42.918 57.2003 42.918C56.5099 42.918 55.8292 42.754 55.2134 42.4392L45.9484 37.0187C45.7219 36.9167 45.5199 36.7805 45.3754 36.5774C45.2309 36.3742 45.1425 36.1361 45.1193 35.8872C45.1193 35.8872 45.1307 37.4084 45.1307 37.8389C45.1544 38.0878 45.2432 38.3258 45.3878 38.5289C45.5325 38.7319 45.9544 38.995 45.9544 38.995C45.9544 38.995 54.6102 44.0762 55.2259 44.3909C55.8417 44.7057 56.5224 44.8697 57.2129 44.8697C57.9033 44.8697 58.584 44.7057 59.1998 44.3909C59.4259 44.2885 59.6212 44.1276 59.7656 43.9246C59.9101 43.7215 59.9987 43.4835 60.0224 43.2348C60.0224 42.8009 60.0098 41.2831 60.0098 41.2831C59.9864 41.5319 59.8979 41.77 59.7534 41.9731C59.6089 42.1762 59.4012 42.3205 59.1749 42.4227Z" fill="#083090" fill-opacity="0.4"/>
<path d="M48.589 48.6044C47.9732 48.9192 47.2925 49.0833 46.6021 49.0833C45.9116 49.0833 45.2309 48.9192 44.6152 48.6044L30.0678 40.1087C29.8416 40.0063 29.6233 39.865 29.4789 39.6619C29.3344 39.4588 29.2458 39.2209 29.2222 38.9722C29.2222 38.9722 29.2347 40.4934 29.2347 40.9239C29.2586 41.1724 29.3472 41.4101 29.4917 41.613C29.6361 41.8158 29.8313 41.9765 30.0573 42.0788C30.0573 42.0788 44.0119 50.2448 44.6277 50.5596C45.2434 50.8744 45.9242 51.0384 46.6146 51.0384C47.3051 51.0384 47.9858 50.8744 48.6015 50.5596C48.8277 50.4572 49.0229 50.2963 49.1674 50.0932C49.3119 49.8902 49.4004 49.6522 49.4241 49.4035C49.4241 48.9695 49.4116 47.4518 49.4116 47.4518C49.3873 47.6999 49.2985 47.9371 49.1541 48.1395C49.0096 48.342 48.8147 48.5023 48.589 48.6044Z" fill="#083090" fill-opacity="0.4"/>
</g>
<g filter="url(#filter2_b_11061_1374)">
<path d="M25.8998 16.8864C26.5154 17.2018 27.1962 17.3663 27.8868 17.3663C28.5773 17.3663 29.2582 17.2018 29.8737 16.8864L31.6886 15.8301V13.8692L29.862 14.898C29.2462 15.2127 28.5685 15.3826 27.8781 15.3826C27.1876 15.3826 26.5099 15.2249 25.8941 14.9101C25.668 14.8077 25.4855 14.6588 25.3411 14.4557C25.1966 14.2527 25.0873 14.025 25.0636 13.7762C25.0636 13.7762 25.0761 15.2974 25.0761 15.728C25.0993 15.9773 25.1878 16.2159 25.3325 16.4194C25.4772 16.623 25.673 16.7841 25.8998 16.8864Z" fill="url(#paint3_linear_11061_1374)"/>
<path d="M21.4086 31.2382H34.5104C35.2016 31.2515 35.8848 31.0867 36.4951 30.7595C36.721 30.657 36.9161 30.4962 37.0608 30.2934C37.2054 30.0906 37.2944 29.853 37.3188 29.6045L37.3063 27.6528V15.8186L39.1439 16.892C39.7597 17.2068 40.4404 17.3708 41.1309 17.3708C41.8213 17.3708 42.502 17.2068 43.1178 16.892C43.3442 16.7897 43.5396 16.6289 43.6843 16.4258C43.829 16.2228 43.9177 15.9847 43.9415 15.7359C43.9415 15.3031 43.929 13.7842 43.929 13.7842C43.9052 14.033 43.7947 14.2562 43.65 14.4593C43.5053 14.6623 43.3067 14.8189 43.0803 14.9212C42.4648 15.2359 41.808 15.3831 41.1177 15.3831C40.4275 15.3831 39.7529 15.2314 39.1373 14.9167L37.304 13.8538V27.6459C37.2798 27.8946 37.1908 28.1325 37.0462 28.3355C36.9016 28.5385 36.7064 28.6994 36.4803 28.802C35.8696 29.1283 35.1867 29.2931 34.4956 29.2808H21.4086" fill="url(#paint4_linear_11061_1374)"/>
<path d="M21.4102 42.2899C21.4202 42.5188 21.3554 42.7447 21.2256 42.9328C21.0679 43.159 20.8625 43.3472 20.6241 43.4839C20.3358 43.6519 20.0244 43.7761 19.7001 43.8524C18.978 44.0254 18.2257 44.0254 17.5035 43.8524C17.1795 43.7763 16.8685 43.6521 16.5807 43.4839C16.3418 43.3475 16.1359 43.1593 15.978 42.9328C15.8742 42.7749 15.8148 42.5916 15.806 42.4024V44.2393C15.795 44.4683 15.86 44.6945 15.9906 44.8823C16.1486 45.1078 16.354 45.2955 16.5921 45.4322C16.8803 45.6008 17.1916 45.7254 17.5161 45.8019C18.2382 45.9748 18.9905 45.9748 19.7126 45.8019C20.0367 45.7254 20.3477 45.6008 20.6355 45.4322C20.8741 45.2959 21.0799 45.1081 21.2381 44.8823C21.3677 44.694 21.4326 44.4682 21.4227 44.2393" fill="url(#paint5_linear_11061_1374)"/>
<path d="M37.9925 53.086C37.377 53.4015 36.6962 53.5659 36.0056 53.5659C35.315 53.5659 34.6342 53.4015 34.0187 53.086L27.4199 49.2332C27.1937 49.131 26.9744 48.9703 26.8297 48.7674C26.6851 48.5646 26.5962 48.3268 26.5723 48.0781C26.5723 48.0781 26.5848 49.5982 26.5848 50.0298C26.6085 50.2785 26.697 50.5165 26.8415 50.7196C26.986 50.9226 27.1812 51.0835 27.4074 51.1859C27.4074 51.1859 33.4168 54.7264 34.0324 55.0411C34.6479 55.3559 35.3284 55.5199 36.0187 55.5199C36.709 55.5199 37.3895 55.3559 38.0051 55.0411C38.2314 54.9389 38.4269 54.7781 38.5716 54.575C38.7163 54.3719 38.805 54.1339 38.8288 53.885C38.8288 53.4511 38.8162 52.8426 38.8162 51.9333C38.7919 52.1816 38.7029 52.4189 38.5582 52.6213C38.4136 52.8237 38.2184 52.984 37.9925 53.086Z" fill="url(#paint6_linear_11061_1374)"/>
<path d="M70.604 33.4323C70.5808 33.6811 70.4924 33.9193 70.3479 34.1224C70.2034 34.3256 70.0079 34.4864 69.7815 34.5884C69.1657 34.9032 68.485 35.0672 67.7945 35.0672C67.1041 35.0672 66.4234 34.9032 65.8076 34.5884L45.965 23.016C45.7432 22.9142 45.5305 22.7616 45.387 22.5631C45.2435 22.3646 45.1497 22.1427 45.1215 21.8988C45.1215 22.2432 45.1306 23.4602 45.1306 23.8299C45.154 24.0786 45.2425 24.3167 45.387 24.5198C45.5315 24.7229 45.9531 24.986 45.9531 24.986L65.819 36.5458C66.4347 36.8606 67.1155 37.0246 67.8059 37.0246C68.4964 37.0246 69.1771 36.8606 69.7928 36.5458C70.0191 36.4436 70.2145 36.2828 70.359 36.0797C70.5035 35.8766 70.592 35.6385 70.6154 35.3897C70.6177 34.9558 70.604 33.4323 70.604 33.4323Z" fill="url(#paint7_linear_11061_1374)"/>
<path d="M59.1749 40.7393C58.5591 41.054 57.8908 41.2346 57.2003 41.2346C56.5099 41.2346 55.8292 41.0705 55.2134 40.7558L45.9484 35.3353C45.7219 35.2332 45.5199 35.097 45.3754 34.8939C45.2309 34.6908 45.1425 34.4526 45.1193 34.2037C45.1193 34.2037 45.1307 35.7249 45.1307 36.1554C45.1544 36.4043 45.2432 36.6423 45.3878 36.8454C45.5325 37.0485 45.9544 37.3116 45.9544 37.3116C45.9544 37.3116 54.6102 42.3927 55.2259 42.7075C55.8417 43.0222 56.5224 43.1863 57.2129 43.1863C57.9033 43.1863 58.584 43.0222 59.1998 42.7075C59.4259 42.6051 59.6212 42.4442 59.7656 42.2411C59.9101 42.038 59.9987 41.8001 60.0224 41.5514C60.0224 41.1174 60.0098 39.5996 60.0098 39.5996C59.9864 39.8484 59.8979 40.0865 59.7534 40.2896C59.6089 40.4927 59.4012 40.637 59.1749 40.7393Z" fill="url(#paint8_linear_11061_1374)"/>
<path d="M48.589 46.9211C47.9732 47.2359 47.2925 47.3999 46.6021 47.3999C45.9116 47.3999 45.2309 47.2359 44.6152 46.9211L30.0678 38.4254C29.8416 38.323 29.6233 38.1816 29.4789 37.9786C29.3344 37.7755 29.2458 37.5375 29.2222 37.2888C29.2222 37.2888 29.2347 38.81 29.2347 39.2405C29.2586 39.489 29.3472 39.7268 29.4917 39.9296C29.6361 40.1324 29.8313 40.2932 30.0573 40.3955C30.0573 40.3955 44.0119 48.5615 44.6277 48.8763C45.2434 49.191 45.9242 49.3551 46.6146 49.3551C47.3051 49.3551 47.9858 49.191 48.6015 48.8763C48.8277 48.7738 49.0229 48.6129 49.1674 48.4099C49.3119 48.2068 49.4004 47.9689 49.4241 47.7202C49.4241 47.2862 49.4116 45.7684 49.4116 45.7684C49.3873 46.0165 49.2985 46.2538 49.1541 46.4562C49.0096 46.6586 48.8147 46.819 48.589 46.9211Z" fill="url(#paint9_linear_11061_1374)"/>
</g>
<g filter="url(#filter3_bi_11061_1374)">
<path d="M25.8861 14.932C25.66 14.8296 25.4647 14.6687 25.3203 14.4656C25.1758 14.2626 25.0872 14.0246 25.0636 13.7759C25.0874 13.5273 25.1761 13.2894 25.3205 13.0864C25.465 12.8834 25.6601 12.7224 25.8861 12.6198L32.5088 8.76689C33.1246 8.45212 33.8053 8.28809 34.4958 8.28809C35.1862 8.28809 35.8669 8.45212 36.4827 8.76689L43.1065 12.6198C43.3327 12.7222 43.5279 12.8831 43.6724 13.0862C43.8169 13.2892 43.9054 13.5272 43.9291 13.7759C43.9053 14.0247 43.8166 14.2628 43.6719 14.4659C43.5272 14.6689 43.3318 14.8298 43.1054 14.932C42.4898 15.2468 41.8093 15.4108 41.119 15.4108C40.4288 15.4108 39.7482 15.2468 39.1327 14.932L37.3041 13.8689V27.6457C37.2801 27.8945 37.1913 28.1324 37.0466 28.3354C36.902 28.5385 36.7066 28.6994 36.4804 28.8018C35.8697 29.1281 35.1869 29.2928 34.4958 29.2805H21.4087V42.2881C21.4197 42.5171 21.3547 42.7433 21.2241 42.9311C21.0663 43.1575 20.8604 43.3458 20.6215 43.4821C20.3337 43.6504 20.0227 43.7746 19.6986 43.8507C18.9767 44.0252 18.224 44.0252 17.5021 43.8507C17.178 43.7746 16.867 43.6504 16.5792 43.4821C16.3408 43.3455 16.1351 43.1578 15.9766 42.9322C15.847 42.7436 15.7821 42.5174 15.792 42.2881V27.648C15.8157 27.3994 15.9043 27.1617 16.0488 26.9588C16.1933 26.756 16.3885 26.5953 16.6146 26.493C17.2253 26.1657 17.9088 26.0009 18.6003 26.0143H31.6874V13.8689L29.8588 14.932C29.2431 15.2468 28.5624 15.4108 27.8719 15.4108C27.1815 15.4108 26.5019 15.2468 25.8861 14.932ZM27.3957 46.9217C28.0114 46.607 28.6922 46.4429 29.3826 46.4429C30.0731 46.4429 30.7538 46.607 31.3695 46.9217L37.9923 50.7747C38.2318 50.8567 38.4398 51.0122 38.5872 51.2195C38.7345 51.4267 38.8137 51.6752 38.8137 51.9302C38.8137 52.1851 38.7345 52.4337 38.5872 52.6409C38.4398 52.8482 38.2318 53.0037 37.9923 53.0857C37.3766 53.4008 36.6958 53.5651 36.0053 53.5651C35.3148 53.5651 34.634 53.4008 34.0184 53.0857L27.3885 49.2328C27.3885 49.2328 26.9469 48.9949 26.7991 48.7876C26.6513 48.5802 26.5718 48.3314 26.5718 48.0761C26.5718 47.8208 26.6513 47.572 26.7991 47.3647C26.9469 47.1574 27.1556 47.0032 27.3957 46.9217ZM34.0184 36.1299C33.4026 35.8151 32.7219 35.6511 32.0315 35.6511C31.341 35.6511 30.6603 35.8151 30.0445 36.1299C29.8046 36.2117 29.5961 36.3672 29.4485 36.5746C29.3008 36.7819 29.2214 37.0308 29.2214 37.286C29.2214 37.5413 29.3008 37.7901 29.4485 37.9975C29.5961 38.2049 30.0445 38.4421 30.0445 38.4421L44.615 46.9183C45.2307 47.2331 45.9114 47.3971 46.6019 47.3971C47.2923 47.3971 47.9731 47.2331 48.5888 46.9183C48.8284 46.8363 49.0364 46.6807 49.1837 46.4735C49.3311 46.2662 49.4103 46.0177 49.4103 45.7628C49.4103 45.5078 49.3311 45.2593 49.1837 45.052C49.0364 44.8448 48.8284 44.6892 48.5888 44.6072L34.0184 36.1299ZM45.94 33.0474C46.5473 32.7383 47.2364 32.5685 47.9269 32.5685C48.6173 32.5685 49.2981 32.7326 49.9138 33.0474L59.1854 38.4433C59.1854 38.4433 59.633 38.6808 59.7803 38.8881C59.9276 39.0953 60.0069 39.3439 60.0069 39.5988C60.0069 39.8537 59.9276 40.1023 59.7803 40.3095C59.633 40.5168 59.1854 40.7543 59.1854 40.7543C58.5696 41.0691 57.8889 41.2331 57.1984 41.2331C56.508 41.2331 55.8273 41.0691 55.2115 40.7543L45.94 35.3584C45.94 35.3584 45.4915 35.1211 45.3439 34.9138C45.1962 34.7064 45.1168 34.4576 45.1168 34.2023C45.1168 33.9471 45.1962 33.6982 45.3439 33.4909C45.4915 33.2835 45.7462 33.1476 45.94 33.0474ZM49.9138 20.7171C49.2981 20.4024 48.6173 20.2383 47.9269 20.2383C47.2364 20.2383 46.5557 20.4024 45.94 20.7171C45.7138 20.8195 45.5186 20.9804 45.3741 21.1835C45.2296 21.3865 45.1411 21.6245 45.1174 21.8732C45.1411 22.1219 45.2296 22.3599 45.3741 22.563C45.5186 22.766 45.94 23.0293 45.94 23.0293L65.8081 34.5904C66.4238 34.9051 67.1046 35.0692 67.795 35.0692C68.4855 35.0692 69.1662 34.9051 69.7819 34.5904C70.0168 34.4703 70.2295 34.3528 70.3769 34.1455C70.5242 33.9383 70.6034 33.6898 70.6034 33.4348C70.6034 33.1799 70.5242 32.9313 70.3769 32.7241C70.2295 32.5168 69.9963 32.3795 69.7819 32.2793L49.9138 20.7171Z" fill="url(#paint10_linear_11061_1374)" fill-opacity="0.35"/>
<path d="M25.916 14.8736L25.916 14.8736L25.9132 14.8723C25.6976 14.7747 25.5115 14.6213 25.3737 14.4276C25.2371 14.2357 25.1529 14.011 25.1294 13.7759C25.1531 13.541 25.2374 13.3163 25.374 13.1244C25.5117 12.9308 25.6978 12.7773 25.9132 12.6795L25.9134 12.6798L25.9191 12.6765L32.5402 8.82446C33.1464 8.51493 33.8163 8.35364 34.4958 8.35364C35.1752 8.35364 35.8452 8.51493 36.4513 8.82446L43.0736 12.6765L43.0734 12.6768L43.0795 12.6795C43.2951 12.7771 43.4812 12.9305 43.619 13.1242C43.7556 13.3161 43.8398 13.5409 43.8632 13.7759C43.8397 14.011 43.7553 14.2358 43.6185 14.4278C43.4805 14.6215 43.2942 14.7748 43.0784 14.8723L43.0784 14.8722L43.0756 14.8736C42.4692 15.1837 41.7989 15.3452 41.119 15.3452C40.4398 15.3452 39.77 15.184 39.1641 14.8744L37.3371 13.8122L37.2386 13.755V13.8689V27.6425C37.2152 27.8787 37.1306 28.1046 36.9932 28.2974C36.8553 28.491 36.669 28.6444 36.4534 28.7421L36.4533 28.742L36.4495 28.744C35.8487 29.065 35.1768 29.2271 34.4969 29.215H34.4958H21.4087H21.3432V29.2805V42.2881H21.3431L21.3432 42.2913C21.3535 42.5059 21.2927 42.7177 21.1704 42.8936C21.0181 43.1121 20.8195 43.2937 20.589 43.4252L20.5884 43.4255C20.3062 43.5905 20.0013 43.7122 19.6836 43.7868L19.6832 43.7869C18.9714 43.959 18.2293 43.959 17.5175 43.7869L17.5171 43.7868C17.1994 43.7122 16.8945 43.5905 16.6123 43.4255L16.6118 43.4253C16.3819 43.2935 16.1834 43.1124 16.0304 42.8948C15.909 42.7179 15.8483 42.5059 15.8575 42.291H15.8575V42.2881V27.6512C15.8806 27.4151 15.965 27.1895 16.1022 26.9968C16.24 26.8034 16.4261 26.6502 16.6416 26.5528L16.6416 26.5529L16.6455 26.5508C17.2463 26.2288 17.9188 26.0667 18.5991 26.0798H18.6003H31.6874H31.753V26.0143V13.8689V13.755L31.6545 13.8122L29.8274 14.8744C29.2213 15.184 28.5514 15.3453 27.8719 15.3453C27.1919 15.3453 26.5225 15.1837 25.916 14.8736ZM27.4167 46.9838L27.417 46.9845L27.4255 46.9801C28.0321 46.6701 28.7026 46.5085 29.3826 46.5085C30.0621 46.5085 30.732 46.6698 31.3381 46.9793L37.9593 50.8313L37.9586 50.8324L37.971 50.8367C38.1975 50.9142 38.3943 51.0613 38.5337 51.2574C38.6732 51.4536 38.7482 51.6888 38.7482 51.9302C38.7482 52.1715 38.6732 52.4068 38.5337 52.6029C38.3943 52.799 38.1975 52.9461 37.971 53.0237L37.9708 53.023L37.9624 53.0274C37.356 53.3377 36.6854 53.4995 36.0053 53.4995C35.3258 53.4995 34.6558 53.338 34.0498 53.0281L27.4214 49.1761L27.4214 49.1761L27.4196 49.1751L27.4196 49.1751L27.4194 49.175L27.4185 49.1745L27.415 49.1726L27.4012 49.165C27.3892 49.1582 27.3717 49.1483 27.3503 49.1358C27.3073 49.1107 27.2486 49.0751 27.1854 49.0333C27.0564 48.9478 26.9186 48.8422 26.8525 48.7495C26.7126 48.5533 26.6373 48.3178 26.6373 48.0761C26.6373 47.8344 26.7126 47.5989 26.8525 47.4027C26.9923 47.2067 27.1896 47.0609 27.4167 46.9838ZM30.0657 36.192L30.0659 36.1926L30.0744 36.1883C30.6809 35.8782 31.3514 35.7167 32.0315 35.7167C32.7109 35.7167 33.3809 35.8779 33.987 36.1875L48.5558 44.6639L48.5552 44.665L48.5676 44.6693C48.7941 44.7468 48.9909 44.8939 49.1303 45.09C49.2697 45.2861 49.3447 45.5214 49.3447 45.7628C49.3447 46.0041 49.2697 46.2394 49.1303 46.4355C48.9909 46.6316 48.7941 46.7787 48.5676 46.8563L48.5674 46.8556L48.559 46.8599C47.9524 47.17 47.2819 47.3315 46.6019 47.3315C45.9224 47.3315 45.2525 47.1702 44.6463 46.8607L30.0775 38.3855L30.0775 38.3854L30.0752 38.3842L30.0752 38.3842L30.075 38.3841L30.0741 38.3836L30.0706 38.3817L30.0565 38.3741C30.0531 38.3721 30.0491 38.37 30.0448 38.3676C30.0339 38.3615 30.0204 38.3539 30.0048 38.345C29.9613 38.3199 29.9017 38.2844 29.8377 38.2427C29.7069 38.1572 29.5677 38.0519 29.5019 37.9594C29.3621 37.7632 29.2869 37.5277 29.2869 37.286C29.2869 37.0444 29.3621 36.8088 29.5019 36.6126C29.6416 36.4163 29.8388 36.2693 30.0657 36.192ZM59.1557 40.6958L59.1555 40.6959C59.1554 40.696 59.1552 40.6961 59.155 40.6962C58.5486 41.0061 57.8783 41.1676 57.1984 41.1676C56.519 41.1676 55.8491 41.0063 55.2429 40.6968L45.9729 35.3018L45.973 35.3017L45.9706 35.3005L45.9706 35.3004L45.9704 35.3003L45.9695 35.2999L45.966 35.298L45.952 35.2903C45.9397 35.2836 45.922 35.2738 45.9002 35.2613C45.8567 35.2362 45.7971 35.2007 45.7331 35.159C45.6023 35.0735 45.4631 34.9682 45.3973 34.8757C45.2575 34.6795 45.1823 34.444 45.1823 34.2023C45.1823 33.9607 45.2575 33.7251 45.3973 33.5289C45.5342 33.3365 45.7739 33.2071 45.9699 33.1057C46.5682 32.8013 47.2471 32.6341 47.9269 32.6341C48.6064 32.6341 49.2763 32.7954 49.8824 33.1049L59.1524 38.4999L59.1524 38.5L59.1546 38.5012L59.1547 38.5012L59.1549 38.5013L59.1557 38.5017L59.1593 38.5037L59.1733 38.5113C59.1855 38.518 59.2032 38.5279 59.2249 38.5404C59.2684 38.5655 59.3278 38.601 59.3917 38.6428C59.5223 38.7283 59.6612 38.8336 59.7269 38.9261C59.8663 39.1222 59.9413 39.3574 59.9413 39.5988C59.9413 39.8402 59.8663 40.0754 59.7269 40.2715C59.6612 40.364 59.5223 40.4693 59.3917 40.5548C59.3278 40.5966 59.2684 40.6321 59.2249 40.6572C59.2032 40.6697 59.1855 40.6796 59.1733 40.6863L59.1593 40.6939L59.1557 40.6958ZM45.967 20.7768L45.967 20.7769L45.9698 20.7755C46.5763 20.4654 47.2468 20.3039 47.9269 20.3039C48.6063 20.3039 49.2763 20.4652 49.8824 20.7747L69.749 32.336L69.7488 32.3362L69.7542 32.3387C69.966 32.4378 70.1863 32.5692 70.3234 32.7621C70.4629 32.9582 70.5379 33.1935 70.5379 33.4348C70.5379 33.6762 70.4629 33.9114 70.3234 34.1076C70.1865 34.3002 69.9877 34.4116 69.7521 34.532C69.1456 34.842 68.4751 35.0036 67.795 35.0036C67.1156 35.0036 66.4456 34.8423 65.8395 34.5328L45.9747 22.9737L45.9747 22.9737L45.9745 22.9736L45.9737 22.9731L45.9703 22.9709L45.957 22.9625C45.9455 22.9551 45.9288 22.9442 45.9082 22.9305C45.8671 22.903 45.8108 22.8644 45.7502 22.8196C45.6265 22.7282 45.493 22.617 45.4275 22.5249C45.2909 22.333 45.2067 22.1082 45.1833 21.8732C45.2067 21.6382 45.2909 21.4134 45.4275 21.2215C45.5653 21.0278 45.7514 20.8744 45.967 20.7768Z" stroke="url(#paint11_linear_11061_1374)" stroke-width="0.131111"/>
</g>
<defs>
<filter id="filter0_di_11061_1374" x="0.581774" y="18.0865" width="85.3107" height="54.8118" filterUnits="userSpaceOnUse" color-interpolation-filters="sRGB">
<feFlood flood-opacity="0" result="BackgroundImageFix"/>
<feColorMatrix in="SourceAlpha" type="matrix" values="0 0 0 0 0 0 0 0 0 0 0 0 0 0 0 0 0 0 127 0" result="hardAlpha"/>
<feOffset dy="5.24444"/>
<feGaussianBlur stdDeviation="3.27778"/>
<feComposite in2="hardAlpha" operator="out"/>
<feColorMatrix type="matrix" values="0 0 0 0 0.0980392 0 0 0 0 0.211765 0 0 0 0 0.482353 0 0 0 0.5 0"/>
<feBlend mode="normal" in2="BackgroundImageFix" result="effect1_dropShadow_11061_1374"/>
<feBlend mode="normal" in="SourceGraphic" in2="effect1_dropShadow_11061_1374" result="shape"/>
<feColorMatrix in="SourceAlpha" type="matrix" values="0 0 0 0 0 0 0 0 0 0 0 0 0 0 0 0 0 0 127 0" result="hardAlpha"/>
<feOffset/>
<feGaussianBlur stdDeviation="2.62222"/>
<feComposite in2="hardAlpha" operator="arithmetic" k2="-1" k3="1"/>
<feColorMatrix type="matrix" values="0 0 0 0 1 0 0 0 0 1 0 0 0 0 1 0 0 0 0.25 0"/>
<feBlend mode="normal" in2="shape" result="effect2_innerShadow_11061_1374"/>
</filter>
<filter id="filter1_f_11061_1374" x="13.1826" y="16.583" width="60.0554" height="43.2429" filterUnits="userSpaceOnUse" color-interpolation-filters="sRGB">
<feFlood flood-opacity="0" result="BackgroundImageFix"/>
<feBlend mode="normal" in="SourceGraphic" in2="BackgroundImageFix" result="shape"/>
<feGaussianBlur stdDeviation="1.31111" result="effect1_foregroundBlur_11061_1374"/>
</filter>
<filter id="filter2_b_11061_1374" x="14.4937" y="12.4651" width="57.4331" height="44.3659" filterUnits="userSpaceOnUse" color-interpolation-filters="sRGB">
<feFlood flood-opacity="0" result="BackgroundImageFix"/>
<feGaussianBlur in="BackgroundImageFix" stdDeviation="0.655556"/>
<feComposite in2="SourceAlpha" operator="in" result="effect1_backgroundBlur_11061_1374"/>
<feBlend mode="normal" in="SourceGraphic" in2="effect1_backgroundBlur_11061_1374" result="shape"/>
</filter>
<filter id="filter3_bi_11061_1374" x="11.8577" y="4.35475" width="62.679" height="53.1436" filterUnits="userSpaceOnUse" color-interpolation-filters="sRGB">
<feFlood flood-opacity="0" result="BackgroundImageFix"/>
<feGaussianBlur in="BackgroundImageFix" stdDeviation="1.96667"/>
<feComposite in2="SourceAlpha" operator="in" result="effect1_backgroundBlur_11061_1374"/>
<feBlend mode="normal" in="SourceGraphic" in2="effect1_backgroundBlur_11061_1374" result="shape"/>
<feColorMatrix in="SourceAlpha" type="matrix" values="0 0 0 0 0 0 0 0 0 0 0 0 0 0 0 0 0 0 127 0" result="hardAlpha"/>
<feOffset/>
<feGaussianBlur stdDeviation="0.983333"/>
<feComposite in2="hardAlpha" operator="arithmetic" k2="-1" k3="1"/>
<feColorMatrix type="matrix" values="0 0 0 0 1 0 0 0 0 1 0 0 0 0 1 0 0 0 0.5 0"/>
<feBlend mode="normal" in2="shape" result="effect2_innerShadow_11061_1374"/>
</filter>
<linearGradient id="paint0_linear_11061_1374" x1="75.8984" y1="27.3716" x2="9.21087" y2="48.828" gradientUnits="userSpaceOnUse">
<stop stop-color="#00298D"/>
<stop offset="0.189268" stop-color="#2349A7"/>
<stop offset="0.646435" stop-color="#3155AD"/>
<stop offset="1" stop-color="#032C91"/>
</linearGradient>
<radialGradient id="paint1_radial_11061_1374" cx="0" cy="0" r="1" gradientUnits="userSpaceOnUse" gradientTransform="translate(43.2371 40.2479) rotate(90) scale(28.6214 49.5543)">
<stop offset="0.0520833" stop-color="#062E8D"/>
<stop offset="1" stop-color="#2968FE"/>
</radialGradient>
<linearGradient id="paint2_linear_11061_1374" x1="31.7221" y1="18.199" x2="51.3231" y2="59.8863" gradientUnits="userSpaceOnUse">
<stop stop-color="white" stop-opacity="0"/>
<stop offset="1" stop-color="white" stop-opacity="0.43"/>
</linearGradient>
<linearGradient id="paint3_linear_11061_1374" x1="31.6952" y1="19.008" x2="26.702" y2="11.6928" gradientUnits="userSpaceOnUse">
<stop stop-color="#E9F7FF"/>
<stop offset="0.579246" stop-color="#D7F0FF" stop-opacity="0.57"/>
<stop offset="0.956471" stop-color="#BDE7FF" stop-opacity="0"/>
</linearGradient>
<linearGradient id="paint4_linear_11061_1374" x1="43.9641" y1="39.2212" x2="17.903" y2="12.5122" gradientUnits="userSpaceOnUse">
<stop stop-color="#E9F7FF"/>
<stop offset="0.579246" stop-color="#D7F0FF" stop-opacity="0.57"/>
<stop offset="0.956471" stop-color="#BDE7FF" stop-opacity="0"/>
</linearGradient>
<linearGradient id="paint5_linear_11061_1374" x1="21.4293" y1="47.597" x2="16.1005" y2="41.0695" gradientUnits="userSpaceOnUse">
<stop stop-color="#E9F7FF"/>
<stop offset="0.579246" stop-color="#D7F0FF" stop-opacity="0.57"/>
<stop offset="0.956471" stop-color="#BDE7FF" stop-opacity="0"/>
</linearGradient>
<linearGradient id="paint6_linear_11061_1374" x1="38.8411" y1="58.9231" x2="28.1145" y2="44.8979" gradientUnits="userSpaceOnUse">
<stop stop-color="#E9F7FF"/>
<stop offset="0.579246" stop-color="#D7F0FF" stop-opacity="0.57"/>
<stop offset="0.956471" stop-color="#BDE7FF" stop-opacity="0"/>
</linearGradient>
<linearGradient id="paint7_linear_11061_1374" x1="70.6412" y1="43.9418" x2="48.976" y2="14.9518" gradientUnits="userSpaceOnUse">
<stop stop-color="#E9F7FF"/>
<stop offset="0.579246" stop-color="#D7F0FF" stop-opacity="0.57"/>
<stop offset="0.956471" stop-color="#BDE7FF" stop-opacity="0"/>
</linearGradient>
<linearGradient id="paint8_linear_11061_1374" x1="60.0373" y1="47.2941" x2="47.1152" y2="30.2735" gradientUnits="userSpaceOnUse">
<stop stop-color="#E9F7FF"/>
<stop offset="0.579246" stop-color="#D7F0FF" stop-opacity="0.57"/>
<stop offset="0.956471" stop-color="#BDE7FF" stop-opacity="0"/>
</linearGradient>
<linearGradient id="paint9_linear_11061_1374" x1="49.4444" y1="54.873" x2="32.1291" y2="31.8579" gradientUnits="userSpaceOnUse">
<stop stop-color="#E9F7FF"/>
<stop offset="0.579246" stop-color="#D7F0FF" stop-opacity="0.57"/>
<stop offset="0.956471" stop-color="#BDE7FF" stop-opacity="0"/>
</linearGradient>
<linearGradient id="paint10_linear_11061_1374" x1="15.791" y1="4.37807" x2="78.7776" y2="38.4572" gradientUnits="userSpaceOnUse">
<stop offset="0.0529546" stop-color="#3FA6E0"/>
<stop offset="0.461273" stop-color="#79CFFF"/>
<stop offset="1" stop-color="#79CFFF"/>
</linearGradient>
<linearGradient id="paint11_linear_11061_1374" x1="69.1693" y1="60.1785" x2="10.3593" y2="31.5496" gradientUnits="userSpaceOnUse">
<stop stop-color="#E9F7FF"/>
<stop offset="0.923987" stop-color="#BDE7FF" stop-opacity="0"/>
</linearGradient>
</defs>
</svg>
