<svg width="86" height="70" viewBox="0 0 86 70" fill="none" xmlns="http://www.w3.org/2000/svg">
<path d="M79.1419 36.2135C79.1419 41.5462 75.6048 46.876 68.5691 50.9452C54.4711 59.0866 31.6145 59.0881 17.5165 50.9452C9.99293 46.5988 6.52517 40.812 7.03361 35.121C6.98909 35.3259 6.95564 35.5331 6.9334 35.7417C6.25547 43.171 8.54127 48.2737 17.5165 53.4517C31.6145 61.5945 54.4711 61.5931 68.5691 53.4517C76.6409 48.7883 79.3069 42.8746 79.1419 36.2135Z" fill="url(#paint0_linear_11061_1304)"/>
<g filter="url(#filter0_di_11061_1304)">
<path d="M43.0444 57.052C62.9818 57.052 79.1442 47.717 79.1442 36.2017C79.1442 24.6863 62.9818 15.3513 43.0444 15.3513C23.107 15.3513 6.94458 24.6863 6.94458 36.2017C6.94458 47.717 23.107 57.052 43.0444 57.052Z" fill="url(#paint1_radial_11061_1304)"/>
<path d="M79.0786 36.2017C79.0786 41.926 75.0609 47.1209 68.538 50.8883C62.0169 54.6548 53.0037 56.9865 43.0444 56.9865C33.0851 56.9865 24.0719 54.6548 17.5508 50.8883C11.0279 47.1209 7.01014 41.926 7.01014 36.2017C7.01014 30.4773 11.0279 25.2825 17.5508 21.515C24.0719 17.7486 33.0851 15.4169 43.0444 15.4169C53.0037 15.4169 62.0169 17.7486 68.538 21.515C75.0609 25.2825 79.0786 30.4773 79.0786 36.2017Z" stroke="url(#paint2_linear_11061_1304)" stroke-width="0.131111" stroke-linejoin="round"/>
</g>
<g style="mix-blend-mode:multiply" filter="url(#filter1_f_11061_1304)">
<path d="M21.7928 23.8549C21.0515 23.5879 20.223 23.4503 19.3828 23.4547C18.5348 23.4388 17.6939 23.5632 16.9335 23.8169C16.6178 23.9241 16.3387 24.0745 16.114 24.2586C15.9307 24.4088 15.8229 24.5944 15.8064 24.7887C15.8012 24.9818 15.8899 25.1708 16.059 25.3267C16.1543 25.417 16.2655 25.4991 16.3902 25.5714C16.556 25.4718 16.7383 25.3856 16.9335 25.3143C17.6939 25.0606 18.5348 24.9362 19.3828 24.9521C20.223 24.9477 21.0515 25.0853 21.7928 25.3523C21.9505 25.4135 22.0991 25.4848 22.2366 25.5652C22.4138 25.4736 22.5582 25.3562 22.6591 25.2217C22.7599 25.0873 22.8146 24.9393 22.8191 24.7887C22.7794 24.5871 22.6643 24.3956 22.4848 24.2323C22.3053 24.0689 22.0671 23.9391 21.7928 23.8549Z" fill="#083090" fill-opacity="0.4"/>
<path d="M31.5924 18.1929C30.8511 17.9259 30.0226 17.7883 29.1823 17.7927C28.3344 17.7769 27.4935 17.9012 26.7331 18.1549C26.4173 18.2621 26.1382 18.4125 25.9136 18.5966C25.7302 18.7468 25.6225 18.9324 25.6059 19.1267C25.6007 19.3198 25.6895 19.5088 25.8586 19.6647C25.9539 19.755 26.0651 19.8372 26.1898 19.9094C26.3556 19.8098 26.5379 19.7236 26.7331 19.6523C27.4935 19.3986 28.3344 19.2742 29.1823 19.2901C30.0226 19.2857 30.8511 19.4233 31.5924 19.6903C31.75 19.7515 31.8987 19.8228 32.0361 19.9032C32.2134 19.8116 32.3578 19.6942 32.4587 19.5598C32.5595 19.4253 32.6142 19.2773 32.6187 19.1267C32.5789 18.9251 32.4639 18.7336 32.2843 18.5703C32.1048 18.407 31.8667 18.2771 31.5924 18.1929Z" fill="#083090" fill-opacity="0.4"/>
<path d="M11.3985 19.3061L13.4286 18.1098L11.7956 17.1469C11.6249 17.0652 11.4753 16.944 11.3587 16.7929C11.242 16.6418 11.1616 16.465 11.1237 16.2766C11.1237 16.2766 11.0863 18.443 11.1237 18.7718C11.1595 18.9744 11.2554 19.1609 11.3985 19.3061Z" fill="#083090" fill-opacity="0.4"/>
<path d="M43.9627 25.7643C44.5213 25.5083 45.0036 25.1061 45.3606 24.5985C45.7177 24.0909 45.9367 23.496 45.9956 22.8742V20.379C45.9367 21.0008 45.7177 21.5957 45.3606 22.1033C45.0036 22.6108 44.5213 23.013 43.9627 23.269L25.4286 34.1776C23.9197 34.9961 22.2311 35.4083 20.5225 35.3753C18.8139 35.4082 17.1253 34.996 15.6163 34.1776L9.08031 30.3704C9.08035 30.7575 8.20044 32.3595 8.20044 32.3595L15.6163 36.6728C17.1253 37.4912 18.8139 37.9034 20.5225 37.8706C22.2311 37.9036 23.9197 37.4913 25.4286 36.6728L43.9627 25.7643Z" fill="#083090" fill-opacity="0.4"/>
<path d="M65.6695 29.0169C65.683 29.2619 65.6738 29.5076 65.6422 29.7508C65.1602 33.4878 61.7043 37.2086 55.4025 40.9192C49.6596 44.4663 43.1558 46.5319 36.4541 46.9371C34.8133 47.0126 33.1697 46.8764 31.5623 46.532C30.1051 46.2318 28.7023 45.7025 27.4043 44.9629L25.4246 43.7975C24.8663 43.5415 24.3843 43.1392 24.0278 42.6316C23.6712 42.124 23.4527 41.5291 23.3945 40.9074C23.3945 40.9074 23.3945 42.3194 23.3945 43.4027C23.4527 44.0243 23.6712 44.6192 24.0278 45.1268C24.3843 45.6344 24.8663 46.0367 25.4246 46.2927L27.4043 47.4582C28.7023 48.1977 30.1051 48.727 31.5623 49.0272C33.1697 49.3717 34.8133 49.5078 36.4541 49.4323C43.1558 49.0271 49.6596 46.9615 55.4025 43.4144C61.7043 39.7038 65.1602 35.983 65.6422 32.246C65.7139 31.1712 65.723 30.0929 65.6695 29.0169Z" fill="#083090" fill-opacity="0.4"/>
</g>
<g filter="url(#filter2_b_11061_1304)">
<path d="M22.0358 21.9063C21.2211 21.4626 20.3106 21.2341 19.3871 21.2414C18.4551 21.215 17.531 21.4216 16.6952 21.8432C16.3482 22.0212 16.0415 22.2712 15.7945 22.5771C15.593 22.8265 15.4746 23.135 15.4564 23.4577C15.4507 23.7787 15.5482 24.0926 15.7341 24.3516C15.8388 24.5017 15.9611 24.6382 16.0981 24.7582C16.2803 24.5928 16.4807 24.4495 16.6952 24.3311C17.531 23.9095 18.4551 23.7029 19.3871 23.7293C20.3106 23.7219 21.2211 23.9505 22.0358 24.3942C22.2091 24.4959 22.3725 24.6144 22.5236 24.7479C22.7184 24.5957 22.8771 24.4007 22.9879 24.1773C23.0988 23.954 23.1589 23.708 23.1638 23.4577C23.1201 23.1228 22.9937 22.8047 22.7964 22.5333C22.5991 22.2619 22.3373 22.0461 22.0358 21.9063Z" fill="url(#paint3_linear_11061_1304)"/>
<path d="M31.833 16.1348C31.0179 15.6924 30.1076 15.4643 29.1843 15.4714C28.2529 15.4446 27.3292 15.6507 26.4938 16.0717C26.1465 16.2499 25.8393 16.4998 25.5917 16.8056C25.3902 17.0551 25.2718 17.3635 25.2536 17.6863C25.2485 18.0071 25.346 18.3209 25.5313 18.5801C25.636 18.7302 25.7583 18.8667 25.8953 18.9867C26.0773 18.82 26.2783 18.6761 26.4938 18.5581C27.3293 18.1373 28.2528 17.9307 29.1843 17.9563C30.1077 17.9498 31.0181 18.1783 31.833 18.6212C32.0064 18.7235 32.1697 18.8424 32.3208 18.9764C32.5156 18.8242 32.6743 18.6292 32.7851 18.4058C32.896 18.1825 32.9561 17.9366 32.961 17.6863C32.9169 17.3515 32.7903 17.0335 32.5931 16.7622C32.3958 16.4909 32.1343 16.275 31.833 16.1348Z" fill="url(#paint4_linear_11061_1304)"/>
<path d="M11.3963 17.2505L13.4264 16.0542L11.7934 15.0913C11.6227 15.0096 11.4731 14.8884 11.3565 14.7373C11.2398 14.5862 11.1594 14.4094 11.1215 14.2209C11.1215 14.2209 11.0841 16.3874 11.1215 16.7162C11.1573 16.9188 11.2532 17.1053 11.3963 17.2505Z" fill="url(#paint5_linear_11061_1304)"/>
<path d="M43.9601 23.7087C44.5187 23.4527 45.001 23.0505 45.358 22.5429C45.715 22.0353 45.9341 21.4404 45.993 20.8186V18.3234C45.9341 18.9452 45.715 19.5401 45.358 20.0477C45.001 20.5552 44.5187 20.9574 43.9601 21.2134L25.426 32.122C23.9171 32.9405 22.2285 33.3527 20.5199 33.3197C18.8112 33.3526 17.1226 32.9404 15.6137 32.122L5.79419 26.3375C5.2066 26.0107 4.69366 25.5604 4.28925 25.0165C3.95561 24.5649 3.77076 24.0172 3.76123 23.4518V25.947C3.77076 26.5124 3.95561 27.0602 4.28925 27.5117C4.69366 28.0557 5.2066 28.5059 5.79419 28.8327L15.6137 34.6172C17.1226 35.4356 18.8112 35.8478 20.5199 35.815C22.2285 35.848 23.9171 35.4357 25.426 34.6172L43.9601 23.7087Z" fill="url(#paint6_linear_11061_1304)"/>
<path d="M65.665 26.9613C65.6785 27.2063 65.6693 27.452 65.6376 27.6952C65.1557 31.4322 61.6998 35.153 55.398 38.8636C49.6551 42.4107 43.1513 44.4763 36.4496 44.8815C34.8088 44.9569 33.1652 44.8208 31.5578 44.4764C30.1005 44.1762 28.6978 43.6469 27.3998 42.9073L25.4201 41.7419C24.8618 41.4859 24.3798 41.0836 24.0233 40.576C23.6667 40.0684 23.4482 39.4735 23.39 38.8518C23.39 38.8518 23.39 40.2638 23.39 41.3471C23.4482 41.9687 23.6667 42.5636 24.0233 43.0712C24.3798 43.5788 24.8618 43.9811 25.4201 44.2371L27.3998 45.4025C28.6978 46.1421 30.1005 46.6714 31.5578 46.9716C33.1652 47.3161 34.8088 47.4522 36.4496 47.3767C43.1513 46.9715 49.6551 44.9059 55.398 41.3588C61.6998 37.6482 65.1557 33.9274 65.6376 30.1904C65.7094 29.1156 65.7185 28.0373 65.665 26.9613Z" fill="url(#paint7_linear_11061_1304)"/>
</g>
<g filter="url(#filter3_bi_11061_1304)">
<path d="M50.5027 21.1954C51.2076 20.7935 51.9654 20.4969 52.753 20.3147C54.4997 19.8999 56.3166 19.8999 58.0634 20.3147C58.8514 20.4969 59.6096 20.7935 60.3151 21.1954L62.2862 22.3564C63.3511 22.9464 64.2634 23.786 64.9479 24.8062C65.51 25.6512 65.7542 26.6748 65.6356 27.6889C65.1536 31.4259 61.6977 35.1467 55.396 38.8573C49.653 42.4044 43.1492 44.4699 36.4475 44.8752C34.8067 44.9506 33.1632 44.8145 31.5558 44.4701C30.0985 44.1699 28.6957 43.6406 27.3978 42.901L25.418 41.7356C24.8597 41.4795 24.3778 41.0773 24.0212 40.5697C23.6646 40.0621 23.4461 39.4672 23.3879 38.8455C23.4472 38.224 23.6665 37.6295 24.0235 37.1222C24.3805 36.6149 24.8626 36.2129 25.4209 35.9569L50.5042 21.1939L50.5027 21.1954ZM11.5887 13.309L11.793 13.1725C12.2478 12.9229 12.7543 12.7871 13.2706 12.7762C13.8026 12.7491 14.3338 12.8428 14.8259 13.0507L15.0633 13.1725L16.6949 14.1354L24.3203 9.63955C25.8293 8.8217 27.5179 8.40998 29.2264 8.4433C30.9349 8.40978 32.6236 8.82152 34.1326 9.63955L43.9564 15.4256C44.5148 15.6816 44.9969 16.0839 45.3537 16.5915C45.7105 17.099 45.9293 17.6939 45.9879 18.3156C45.9308 18.9381 45.7131 19.5341 45.3571 20.043C45.001 20.5519 44.5192 20.9556 43.9607 21.213L25.4267 32.1216C23.9178 32.9401 22.2291 33.3523 20.5205 33.3193C18.8119 33.3522 17.1233 32.94 15.6143 32.1216L5.79484 26.3371C5.20725 26.0103 4.69431 25.56 4.2899 25.0161C3.94734 24.5694 3.76123 24.0185 3.76123 23.4514C3.76123 22.8842 3.94734 22.3334 4.2899 21.8867C4.69504 21.3435 5.20782 20.8934 5.79484 20.5657L13.4202 16.0699L11.7873 15.107C11.6165 15.0255 11.4667 14.9043 11.3501 14.7532C11.2334 14.602 11.153 14.4251 11.1154 14.2366C11.1069 14.0552 11.1457 13.8747 11.2278 13.7136C11.3099 13.5524 11.4325 13.4164 11.583 13.3193L11.7873 13.1813L11.5801 13.3207L11.5887 13.309ZM16.6963 21.8427C16.3493 22.0208 16.0426 22.2707 15.7956 22.5766C15.5941 22.8261 15.4757 23.1345 15.4575 23.4573C15.4518 23.7782 15.5493 24.0922 15.7352 24.3511C15.9614 24.6636 16.2515 24.9221 16.5855 25.1085C16.9881 25.3382 17.4215 25.5068 17.8718 25.609C18.369 25.7252 18.8781 25.7803 19.3882 25.7734C19.8954 25.7686 20.4002 25.7016 20.8917 25.5738C21.333 25.4628 21.7552 25.2836 22.1434 25.0425C22.4362 24.8945 22.6852 24.6696 22.8647 24.3911C23.0442 24.1125 23.1478 23.7902 23.1649 23.4573C23.1224 23.121 22.9965 22.8014 22.7991 22.5286C22.6017 22.2559 22.3394 22.039 22.037 21.8985C21.2223 21.4548 20.3117 21.2262 19.3882 21.2336C18.4556 21.2095 17.5314 21.4186 16.6963 21.8427ZM26.4942 16.0714C26.1466 16.2491 25.8393 16.4991 25.5921 16.8053C25.3906 17.0547 25.2722 17.3632 25.254 17.6859C25.2489 18.0068 25.3464 18.3206 25.5317 18.5798C25.7583 18.8919 26.0483 19.1503 26.382 19.3372C26.7846 19.5669 27.2179 19.7355 27.6682 19.8377C28.6642 20.0669 29.699 20.0549 30.6896 19.8025C31.1302 19.6905 31.5517 19.5114 31.9399 19.2711C32.2328 19.1233 32.4819 18.8985 32.6614 18.6199C32.8409 18.3413 32.9445 18.0189 32.9614 17.6859C32.9187 17.3496 32.7927 17.0298 32.5954 16.7569C32.3981 16.4839 32.1358 16.2667 31.8334 16.1257C31.0184 15.6832 30.108 15.4552 29.1847 15.4622C28.2522 15.4395 27.3285 15.6502 26.4942 16.0758V16.0714Z" fill="url(#paint8_linear_11061_1304)" fill-opacity="0.35"/>
<path d="M16.6664 21.7844L16.6666 21.7843C17.5111 21.3554 18.4456 21.1438 19.3888 21.168C20.3224 21.1608 21.2428 21.3918 22.0665 21.8399C22.3784 21.9852 22.6487 22.209 22.8522 22.4902C23.0561 22.7719 23.1861 23.102 23.23 23.449L23.2315 23.4607L23.2304 23.4606C23.2127 23.8049 23.1056 24.1383 22.9198 24.4266C22.7346 24.714 22.4778 24.9463 22.1756 25.0997C21.7823 25.3436 21.3549 25.5249 20.9079 25.6373C20.4114 25.7664 19.9015 25.8341 19.3891 25.839C19.389 25.839 19.3889 25.839 19.3888 25.839L19.3882 25.7734M16.6664 21.7844L17.8718 25.609C18.369 25.7252 18.8781 25.7803 19.3882 25.7734M16.6664 21.7844C16.3112 21.9667 15.9973 22.2225 15.7446 22.5354M16.6664 21.7844L17.857 25.6729C17.4005 25.5693 16.9613 25.3984 16.5532 25.1655C16.2109 24.9744 15.9137 24.7096 15.6821 24.3896L15.6819 24.3894C15.4878 24.1188 15.386 23.791 15.392 23.4561L15.392 23.4536L15.3921 23.4536C15.411 23.1173 15.5344 22.7957 15.7446 22.5354M19.3882 25.7734C19.8954 25.7686 20.4002 25.7016 20.8917 25.5738C21.333 25.4628 21.7552 25.2836 22.1434 25.0425C22.4362 24.8945 22.6852 24.6696 22.8647 24.3911C23.0442 24.1125 23.1478 23.7902 23.1649 23.4573M19.3882 25.7734L23.1649 23.4573M15.7446 22.5354L15.7956 22.5766M15.7446 22.5354C15.7446 22.5354 15.7446 22.5354 15.7446 22.5354L15.7956 22.5766M15.7956 22.5766C16.0426 22.2707 16.3493 22.0208 16.6963 21.8427M15.7956 22.5766C15.5941 22.8261 15.4757 23.1345 15.4575 23.4573C15.4518 23.7782 15.5493 24.0922 15.7352 24.3511C15.9614 24.6636 16.2515 24.9221 16.5855 25.1085L16.6963 21.8427M16.6963 21.8427C17.5314 21.4186 18.4556 21.2095 19.3882 21.2336C20.3117 21.2262 21.2223 21.4548 22.037 21.8985C22.3394 22.039 22.6017 22.2559 22.7991 22.5286C22.9965 22.8014 23.1224 23.121 23.1649 23.4573M16.6963 21.8427L23.1649 23.4573M25.4542 36.0134L50.5349 21.2519L50.5352 21.2524C51.2346 20.8536 51.9864 20.5594 52.7677 20.3786L52.7681 20.3785C54.5049 19.966 56.3114 19.966 58.0483 20.3785L58.0486 20.3786C58.8302 20.5593 59.5824 20.8535 60.2822 21.2521C60.2823 21.2522 60.2825 21.2523 60.2826 21.2524L62.2529 22.4129L62.2544 22.4138C63.3101 22.9986 64.2147 23.8311 64.8934 24.8427C65.4467 25.6746 65.6872 26.6824 65.5705 27.681C65.0925 31.3848 61.6623 35.0915 55.3627 38.8008L55.3615 38.8015C49.6279 42.3428 43.1347 44.4051 36.444 44.8097C34.809 44.8849 33.1712 44.7492 31.5695 44.406L31.569 44.4059C30.1186 44.1071 28.7225 43.5803 27.4306 42.8443C27.4305 42.8442 27.4303 42.8441 27.4302 42.844L25.4513 41.6791L25.4515 41.6788L25.4454 41.676C24.8977 41.4249 24.4248 41.0302 24.0748 40.532C23.7261 40.0355 23.5118 39.4537 23.4538 38.8456C23.5129 38.2375 23.7279 37.6561 24.0771 37.1599C24.4275 36.662 24.9006 36.2676 25.4482 36.0165L25.4484 36.0168L25.4542 36.0134ZM11.402 14.7131C11.2925 14.5713 11.2167 14.4055 11.1806 14.2287C11.1736 14.0602 11.21 13.8929 11.2862 13.7434C11.3631 13.5924 11.4779 13.4651 11.6185 13.3744L11.6185 13.3744L11.6196 13.3736L11.8239 13.2357L11.8239 13.2356L11.8216 13.2322L11.827 13.2286C12.272 12.985 12.7672 12.8524 13.272 12.8417L13.272 12.8418L13.274 12.8417C13.7952 12.8151 14.3158 12.9068 14.7982 13.1101L15.0317 13.2299L16.6615 14.1918L16.6948 14.2115L16.7281 14.1918L24.3525 9.69661C25.8514 8.88452 27.5284 8.47575 29.2251 8.50884L29.2251 8.50889L29.2277 8.50884C30.9244 8.47556 32.6015 8.88434 34.1003 9.69662C34.1007 9.69681 34.101 9.69699 34.1013 9.69718L43.9231 15.482L43.923 15.4823L43.9291 15.4851C44.4768 15.7363 44.9499 16.131 45.3001 16.6292C45.6491 17.1257 45.8637 17.7074 45.9221 18.3157C45.8651 18.9247 45.6517 19.5076 45.3033 20.0054C44.9539 20.5049 44.4811 20.901 43.9333 21.1535L43.9331 21.1532L43.9275 21.1565L25.3954 32.064C25.3951 32.0642 25.3948 32.0643 25.3944 32.0645C23.8957 32.8772 22.2186 33.2865 20.5218 33.2538V33.2537L20.5192 33.2538C18.8224 33.2864 17.1454 32.8771 15.6466 32.0645L5.82811 26.2806L5.82812 26.2806L5.8267 26.2798C5.24731 25.9575 4.74142 25.5135 4.34252 24.9769L4.34192 24.9762C4.00821 24.541 3.82679 24.0042 3.82679 23.4514C3.82679 22.8986 4.00821 22.3618 4.34193 21.9266L4.34245 21.9259C4.74212 21.39 5.2479 20.9461 5.82679 20.623L5.8268 20.623L5.82813 20.6222L13.4535 16.1264L13.5493 16.0699L13.4535 16.0134L11.8206 15.0506L11.8207 15.0504L11.8155 15.0479C11.6541 14.9708 11.5124 14.8562 11.402 14.7131ZM25.4786 18.6183C25.7107 18.938 26.0079 19.2027 26.3498 19.3943C26.7579 19.6271 27.1971 19.798 27.6535 19.9016C28.6597 20.1332 29.7051 20.121 30.7058 19.866C31.152 19.7526 31.5788 19.5714 31.972 19.3284C32.2743 19.1752 32.5312 18.9429 32.7165 18.6554C32.9023 18.3671 33.0094 18.0336 33.0269 17.6893L33.0279 17.6893L33.0265 17.6777C32.9824 17.3305 32.8524 17.0004 32.6485 16.7184C32.4451 16.4371 32.1748 16.2129 31.863 16.0671C31.0389 15.6202 30.1186 15.3898 29.1852 15.3967C28.2776 15.3747 27.3782 15.5713 26.5598 15.9699V15.9642L26.4644 16.013C26.1085 16.195 25.7941 16.4508 25.5411 16.7641C25.3309 17.0243 25.2075 17.3459 25.1886 17.6823L25.1885 17.6823L25.1885 17.6849C25.1831 18.0196 25.2848 18.3472 25.4784 18.6179L25.4786 18.6183Z" stroke="url(#paint9_linear_11061_1304)" stroke-width="0.131111"/>
</g>
<defs>
<filter id="filter0_di_11061_1304" x="0.389025" y="14.0402" width="85.3107" height="54.8119" filterUnits="userSpaceOnUse" color-interpolation-filters="sRGB">
<feFlood flood-opacity="0" result="BackgroundImageFix"/>
<feColorMatrix in="SourceAlpha" type="matrix" values="0 0 0 0 0 0 0 0 0 0 0 0 0 0 0 0 0 0 127 0" result="hardAlpha"/>
<feOffset dy="5.24444"/>
<feGaussianBlur stdDeviation="3.27778"/>
<feComposite in2="hardAlpha" operator="out"/>
<feColorMatrix type="matrix" values="0 0 0 0 0.0980392 0 0 0 0 0.211765 0 0 0 0 0.482353 0 0 0 0.5 0"/>
<feBlend mode="normal" in2="BackgroundImageFix" result="effect1_dropShadow_11061_1304"/>
<feBlend mode="normal" in="SourceGraphic" in2="effect1_dropShadow_11061_1304" result="shape"/>
<feColorMatrix in="SourceAlpha" type="matrix" values="0 0 0 0 0 0 0 0 0 0 0 0 0 0 0 0 0 0 127 0" result="hardAlpha"/>
<feOffset/>
<feGaussianBlur stdDeviation="2.62222"/>
<feComposite in2="hardAlpha" operator="arithmetic" k2="-1" k3="1"/>
<feColorMatrix type="matrix" values="0 0 0 0 1 0 0 0 0 1 0 0 0 0 1 0 0 0 0.25 0"/>
<feBlend mode="normal" in2="shape" result="effect2_innerShadow_11061_1304"/>
</filter>
<filter id="filter1_f_11061_1304" x="5.57822" y="13.6543" width="62.7477" height="38.4204" filterUnits="userSpaceOnUse" color-interpolation-filters="sRGB">
<feFlood flood-opacity="0" result="BackgroundImageFix"/>
<feBlend mode="normal" in="SourceGraphic" in2="BackgroundImageFix" result="shape"/>
<feGaussianBlur stdDeviation="1.31111" result="effect1_foregroundBlur_11061_1304"/>
</filter>
<filter id="filter2_b_11061_1304" x="2.45012" y="12.9098" width="64.5602" height="35.7982" filterUnits="userSpaceOnUse" color-interpolation-filters="sRGB">
<feFlood flood-opacity="0" result="BackgroundImageFix"/>
<feGaussianBlur in="BackgroundImageFix" stdDeviation="0.655556"/>
<feComposite in2="SourceAlpha" operator="in" result="effect1_backgroundBlur_11061_1304"/>
<feBlend mode="normal" in="SourceGraphic" in2="effect1_backgroundBlur_11061_1304" result="shape"/>
</filter>
<filter id="filter3_bi_11061_1304" x="-0.172103" y="4.50807" width="69.7704" height="44.3206" filterUnits="userSpaceOnUse" color-interpolation-filters="sRGB">
<feFlood flood-opacity="0" result="BackgroundImageFix"/>
<feGaussianBlur in="BackgroundImageFix" stdDeviation="1.96667"/>
<feComposite in2="SourceAlpha" operator="in" result="effect1_backgroundBlur_11061_1304"/>
<feBlend mode="normal" in="SourceGraphic" in2="effect1_backgroundBlur_11061_1304" result="shape"/>
<feColorMatrix in="SourceAlpha" type="matrix" values="0 0 0 0 0 0 0 0 0 0 0 0 0 0 0 0 0 0 127 0" result="hardAlpha"/>
<feOffset/>
<feGaussianBlur stdDeviation="0.983333"/>
<feComposite in2="hardAlpha" operator="arithmetic" k2="-1" k3="1"/>
<feColorMatrix type="matrix" values="0 0 0 0 1 0 0 0 0 1 0 0 0 0 1 0 0 0 0.5 0"/>
<feBlend mode="normal" in2="shape" result="effect2_innerShadow_11061_1304"/>
</filter>
<linearGradient id="paint0_linear_11061_1304" x1="75.7056" y1="23.3254" x2="9.01812" y2="44.7817" gradientUnits="userSpaceOnUse">
<stop stop-color="#00298D"/>
<stop offset="0.189268" stop-color="#2349A7"/>
<stop offset="0.646435" stop-color="#3155AD"/>
<stop offset="1" stop-color="#032C91"/>
</linearGradient>
<radialGradient id="paint1_radial_11061_1304" cx="0" cy="0" r="1" gradientUnits="userSpaceOnUse" gradientTransform="translate(43.0444 36.2017) rotate(90) scale(28.6214 49.5543)">
<stop offset="0.0520833" stop-color="#062E8D"/>
<stop offset="1" stop-color="#2968FE"/>
</radialGradient>
<linearGradient id="paint2_linear_11061_1304" x1="31.5294" y1="14.1527" x2="51.1303" y2="55.84" gradientUnits="userSpaceOnUse">
<stop stop-color="white" stop-opacity="0"/>
<stop offset="1" stop-color="white" stop-opacity="0.43"/>
</linearGradient>
<linearGradient id="paint3_linear_11061_1304" x1="23.1716" y1="26.3675" x2="18.6289" y2="18.4685" gradientUnits="userSpaceOnUse">
<stop stop-color="#E9F7FF"/>
<stop offset="0.579246" stop-color="#D7F0FF" stop-opacity="0.57"/>
<stop offset="0.956471" stop-color="#BDE7FF" stop-opacity="0"/>
</linearGradient>
<linearGradient id="paint4_linear_11061_1304" x1="32.9688" y1="20.5954" x2="28.4287" y2="12.698" gradientUnits="userSpaceOnUse">
<stop stop-color="#E9F7FF"/>
<stop offset="0.579246" stop-color="#D7F0FF" stop-opacity="0.57"/>
<stop offset="0.956471" stop-color="#BDE7FF" stop-opacity="0"/>
</linearGradient>
<linearGradient id="paint5_linear_11061_1304" x1="13.4287" y1="18.6359" x2="9.41061" y2="16.1914" gradientUnits="userSpaceOnUse">
<stop stop-color="#E9F7FF"/>
<stop offset="0.579246" stop-color="#D7F0FF" stop-opacity="0.57"/>
<stop offset="0.956471" stop-color="#BDE7FF" stop-opacity="0"/>
</linearGradient>
<linearGradient id="paint6_linear_11061_1304" x1="46.0354" y1="43.8167" x2="24.6056" y2="2.74464" gradientUnits="userSpaceOnUse">
<stop stop-color="#E9F7FF"/>
<stop offset="0.579246" stop-color="#D7F0FF" stop-opacity="0.57"/>
<stop offset="0.956471" stop-color="#BDE7FF" stop-opacity="0"/>
</linearGradient>
<linearGradient id="paint7_linear_11061_1304" x1="65.7417" y1="56.7423" x2="38.6368" y2="12.1912" gradientUnits="userSpaceOnUse">
<stop stop-color="#E9F7FF"/>
<stop offset="0.579246" stop-color="#D7F0FF" stop-opacity="0.57"/>
<stop offset="0.956471" stop-color="#BDE7FF" stop-opacity="0"/>
</linearGradient>
<linearGradient id="paint8_linear_11061_1304" x1="3.76123" y1="5.29332" x2="62.1113" y2="49.5777" gradientUnits="userSpaceOnUse">
<stop offset="0.0529546" stop-color="#3FA6E0"/>
<stop offset="0.461273" stop-color="#79CFFF"/>
<stop offset="1" stop-color="#79CFFF"/>
</linearGradient>
<linearGradient id="paint9_linear_11061_1304" x1="64.0452" y1="50.2201" x2="8.01352" y2="11.9591" gradientUnits="userSpaceOnUse">
<stop stop-color="#E9F7FF"/>
<stop offset="0.923987" stop-color="#BDE7FF" stop-opacity="0"/>
</linearGradient>
</defs>
</svg>
