<svg width="87" height="70" viewBox="0 0 87 70" fill="none" xmlns="http://www.w3.org/2000/svg">
<path d="M79.5641 35.1638C79.5641 40.4965 76.0271 45.8263 68.9914 49.8956C54.8934 58.037 32.0368 58.0384 17.9388 49.8956C10.4152 45.5492 6.94744 39.7623 7.45589 34.0713C7.41136 34.2762 7.37791 34.4834 7.35567 34.692C6.67774 42.1213 8.96355 47.224 17.9388 52.402C32.0368 60.5448 54.8934 60.5434 68.9914 52.402C77.0632 47.7386 79.7292 41.8249 79.5641 35.1638Z" fill="url(#paint0_linear_11061_1067)"/>
<g filter="url(#filter0_di_11061_1067)">
<path d="M43.4662 56.0024C63.4036 56.0024 79.566 46.6673 79.566 35.152C79.566 23.6367 63.4036 14.3016 43.4662 14.3016C23.5289 14.3016 7.36642 23.6367 7.36642 35.152C7.36642 46.6673 23.5289 56.0024 43.4662 56.0024Z" fill="url(#paint1_radial_11061_1067)"/>
<path d="M79.5005 35.152C79.5005 40.8763 75.4827 46.0712 68.9599 49.8387C62.4387 53.6051 53.4255 55.9368 43.4662 55.9368C33.507 55.9368 24.4937 53.6051 17.9726 49.8387C11.4497 46.0712 7.43198 40.8763 7.43198 35.152C7.43198 29.4277 11.4497 24.2328 17.9726 20.4653C24.4937 16.6989 33.507 14.3672 43.4662 14.3672C53.4255 14.3672 62.4387 16.6989 68.9599 20.4653C75.4827 24.2328 79.5005 29.4277 79.5005 35.152Z" stroke="url(#paint2_linear_11061_1067)" stroke-width="0.131111" stroke-linejoin="round"/>
</g>
<g style="mix-blend-mode:multiply" filter="url(#filter1_f_11061_1067)">
<path fill-rule="evenodd" clip-rule="evenodd" d="M57.9433 36.4581C60.272 36.4003 62.5573 35.8305 64.6283 34.7914C67.1874 33.3524 68.1693 31.6201 68.2434 29.9979C68.3016 31.9446 67.7166 35.5458 64.6283 37.2836C62.557 38.3219 60.2719 38.8917 57.9433 38.9504C57.6686 38.9661 57.3931 38.9474 57.1233 38.8948C56.8787 38.8481 56.6431 38.7641 56.4254 38.6459L47.3443 33.5346L22.2497 19.1747L24.2142 18.3013L47.3431 31.0435L56.4242 36.1547C56.6422 36.2732 56.8782 36.3569 57.1233 36.4025C57.3929 36.4563 57.6686 36.475 57.9433 36.4581ZM67.0096 25.1112C67.0782 24.1978 67.0858 23.281 67.0324 22.3667C67.0324 22.4545 67.021 22.54 67.0085 22.6256C66.8523 23.5489 66.3857 24.3954 65.6822 25.0323C66.0648 25.3422 66.4172 25.6859 66.7348 26.059C66.8718 25.7573 66.9643 25.4382 67.0096 25.1112ZM53.1753 39.5015C53.1766 39.5413 53.1739 39.5811 53.1673 39.6204C52.9974 40.4266 52.6411 41.1844 52.1255 41.8363C51.61 42.4882 50.9487 43.0171 50.192 43.3827C46.9559 45.0133 43.3066 45.7022 39.6797 45.3672C37.3395 45.2423 35.0324 44.7717 32.8372 43.9716C31.4532 44.4117 30.0132 44.663 28.5584 44.7183C25.4426 44.7603 22.3652 44.0443 19.6051 42.6349C17.5759 41.428 15.7329 39.9465 14.1311 38.2348C13.9465 37.9226 13.8213 37.5804 13.7616 37.2248C13.7084 36.8842 13.7405 36.5361 13.8551 36.2103C13.9184 36.0366 14.0022 35.8706 14.1049 35.7158C11.5355 35.0641 10.0097 34.3691 8.66754 33.1921L7.62363 34.1535C9.31884 35.9683 11.3176 37.3851 13.7411 38.0526C13.6674 38.959 13.8022 39.8701 14.1357 40.7193C15.1256 42.2582 18.1271 44.285 19.6097 45.1183C22.329 46.6309 25.4357 47.3538 28.563 47.2017C30.0177 47.1463 31.4576 46.8954 32.8418 46.4562C35.0373 47.255 37.3443 47.7255 39.6843 47.8517C43.3113 48.187 46.9608 47.4976 50.1965 45.8661C50.9536 45.5007 51.6151 44.9719 52.1308 44.32C52.6466 43.668 53.003 42.9101 53.173 42.1038C53.1779 42.0737 53.1806 42.0432 53.181 42.0127C53.1808 41.9888 53.1815 41.8837 53.1826 41.7285C53.1868 41.1319 53.1961 39.796 53.1753 39.5015Z" fill="#083090" fill-opacity="0.4"/>
</g>
<g filter="url(#filter2_b_11061_1067)">
<path fill-rule="evenodd" clip-rule="evenodd" d="M57.9426 34.8136C60.2713 34.7558 62.5566 34.186 64.6277 33.1469C67.1867 31.708 68.1686 29.9757 68.2428 28.3534C68.3009 30.3001 67.7159 33.9014 64.6277 35.6392C62.5563 36.6775 60.2712 37.2472 57.9426 37.3059C57.6679 37.3217 57.3924 37.303 57.1226 37.2503C56.878 37.2037 56.6425 37.1197 56.4247 37.0014L47.3436 31.8902L19.0946 16.0008C18.9609 15.9385 18.8429 15.8483 18.7491 15.7365C18.6552 15.6247 18.5879 15.4942 18.5517 15.3541C18.4993 15.0297 18.4765 12.8507 18.4993 12.3629C18.4998 12.3892 18.5018 12.4153 18.5038 12.4413C18.5061 12.4712 18.5084 12.501 18.5084 12.5307C18.5175 12.6418 18.5323 12.7529 18.5517 12.864C18.5879 13.0038 18.6552 13.134 18.7488 13.2456C18.8424 13.3572 18.9601 13.4473 19.0934 13.5096L47.3425 29.399L56.4236 34.5103C56.6415 34.6288 56.8775 34.7124 57.1226 34.758C57.3922 34.8119 57.6679 34.8305 57.9426 34.8136ZM67.0092 23.4667C67.0778 22.5533 67.0854 21.6365 67.032 20.7222C67.032 20.8099 67.0206 20.8955 67.008 20.981C66.8519 21.9043 66.3853 22.7509 65.6817 23.3878C66.0644 23.6976 66.4167 24.0413 66.7343 24.4145C66.8713 24.1128 66.9639 23.7937 67.0092 23.4667ZM6.47535 23.6909C6.75931 24.2461 7.16382 24.7346 7.66084 25.1223C7.26079 25.3766 6.9191 25.7087 6.65728 26.0979C6.20779 24.7449 5.99122 23.3286 6.01637 21.9067C6.03477 22.5268 6.19138 23.1356 6.47535 23.6909ZM53.1691 37.9759C53.1757 37.9366 53.1784 37.8968 53.177 37.857C53.1979 38.1515 53.1885 39.4874 53.1843 40.084C53.1832 40.2392 53.1825 40.3443 53.1827 40.3682C53.1823 40.3987 53.1797 40.4292 53.1748 40.4593C53.0048 41.2656 52.6483 42.0236 52.1326 42.6755C51.6168 43.3274 50.9553 43.8562 50.1983 44.2216C46.9625 45.8532 43.3131 46.5425 39.686 46.2073C37.346 46.081 35.0391 45.6105 32.8436 44.8117C31.4593 45.2509 30.0194 45.5018 28.5647 45.5572C25.4374 45.7093 22.3307 44.9864 19.6114 43.4738C18.1289 42.6405 15.1273 40.6138 14.1374 39.0748C13.8039 38.2256 13.6691 37.3145 13.7429 36.4081C11.3193 35.7406 9.13616 34.4249 7.44095 32.6102C6.68153 31.746 6.27089 30.6421 6.28572 29.5045C6.28686 29.4112 6.27888 28.3189 6.25949 27.5745C6.36688 28.5262 6.77995 29.4206 7.43981 30.1301C9.21975 32.0496 11.5373 33.4196 14.1066 34.0713C14.004 34.2261 13.9201 34.3921 13.8569 34.5658C13.7422 34.8917 13.7101 35.2397 13.7634 35.5803C13.8231 35.9359 13.9482 36.2781 14.1329 36.5903C15.7346 38.302 17.5777 39.7835 19.6068 40.9904C22.3669 42.3998 25.4443 43.1159 28.5602 43.0738C30.015 43.0185 31.4549 42.7672 32.839 42.3271C35.0341 43.1272 37.3413 43.5978 39.6814 43.7227C43.3084 44.0577 46.9576 43.3688 50.1937 41.7382C50.9505 41.3726 51.6117 40.8437 52.1273 40.1918C52.6428 39.5399 52.9991 38.7821 53.1691 37.9759Z" fill="url(#paint3_linear_11061_1067)"/>
</g>
<g filter="url(#filter3_bi_11061_1067)">
<mask id="path-6-inside-1_11061_1067" fill="white">
<path fill-rule="evenodd" clip-rule="evenodd" d="M65.6748 23.3878C66.924 24.3596 67.7983 25.7152 68.1552 27.2334C68.2068 27.4765 68.2389 27.7232 68.251 27.9712C68.3205 29.7068 67.3934 31.5958 64.6336 33.1514C62.5626 34.1905 60.2773 34.7603 57.9485 34.8181C57.6739 34.835 57.3982 34.8164 57.1286 34.7625C56.8834 34.7169 56.6474 34.6332 56.4295 34.5148L51.3684 31.668L47.3484 29.4068L19.0994 13.5174C18.966 13.4551 18.8483 13.365 18.7547 13.2534C18.6611 13.1419 18.5938 13.0116 18.5577 12.8719C18.5383 12.7608 18.5235 12.6496 18.5143 12.5385C18.4922 12.3056 18.503 12.0708 18.5463 11.8407C18.5984 11.6012 18.7045 11.3759 18.8567 11.1811C19.0089 10.9863 19.2036 10.8268 19.4267 10.714C22.0203 9.33908 24.8914 8.53392 27.8383 8.35507C30.2936 8.14182 32.7674 8.43913 35.0959 9.22732C36.1376 8.76137 37.2633 8.50009 38.4088 8.4584C40.2949 8.38185 42.1815 8.60017 43.9968 9.10509C46.6418 9.70077 49.066 10.9979 51.0012 12.853C51.284 12.7963 51.5782 12.7496 51.885 12.7152C53.1208 12.5894 54.3691 12.6482 55.5867 12.8897C58.3138 13.4898 60.9207 14.5237 63.3027 15.9497C65.9576 17.4376 66.9635 18.9998 67.033 20.3943C67.043 20.5902 67.0346 20.7866 67.0079 20.981C66.8499 21.9051 66.3809 22.7518 65.6748 23.3878ZM52.6243 37.1227C52.802 37.2164 52.9535 37.3511 53.0656 37.5149C53.1082 37.5798 53.1394 37.6511 53.158 37.726C53.1786 37.8079 53.1817 37.893 53.1671 37.976C52.9987 38.7846 52.6428 39.545 52.1268 40.1992C51.6107 40.8534 50.9481 41.384 50.1895 41.7506C46.9536 43.3817 43.3042 44.0706 39.6772 43.7351C37.337 43.6101 35.0299 43.1396 32.8347 42.3395C31.4507 42.7795 30.0107 43.0308 28.5559 43.0862C25.4286 43.2383 22.3219 42.5153 19.6026 41.0028C18.5595 40.4266 17.5544 39.7876 16.593 39.0894L16.4608 38.9783C16.2806 38.8438 16.1004 38.7083 15.9385 38.5749C15.2017 37.9011 14.5484 37.1455 13.9918 36.3238C13.9692 36.2779 13.9505 36.2303 13.9359 36.1815C13.8551 35.9908 13.7969 35.7917 13.7626 35.5882C13.7093 35.2476 13.7414 34.8996 13.8561 34.5737C13.9193 34.4 14.0031 34.234 14.1058 34.0792C11.5364 33.4275 9.21892 32.0575 7.43899 30.138C6.7476 29.4037 6.32881 28.4648 6.24954 27.4713C6.24776 27.31 6.26151 27.1489 6.2906 26.9901C6.37622 26.605 6.54179 26.241 6.77713 25.9206C7.01248 25.6001 7.31261 25.33 7.65909 25.1267C7.16097 24.7385 6.75578 24.249 6.47176 23.6925C6.18774 23.1359 6.03173 22.5257 6.01462 21.9044C6.01516 21.6137 6.04766 21.3239 6.11155 21.0399C6.44542 20.016 6.98897 19.0687 7.70932 18.2553C8.42968 17.4419 9.31187 16.7793 10.3026 16.3076C10.9263 16.0057 11.6091 15.8371 12.3051 15.8131C12.9179 15.78 13.5321 15.7819 14.1446 15.8187C14.5468 15.8333 14.9401 15.9378 15.2941 16.1242L24.9283 21.5433L28.0678 23.3089L52.6243 37.1227Z"/>
</mask>
<path fill-rule="evenodd" clip-rule="evenodd" d="M65.6748 23.3878C66.924 24.3596 67.7983 25.7152 68.1552 27.2334C68.2068 27.4765 68.2389 27.7232 68.251 27.9712C68.3205 29.7068 67.3934 31.5958 64.6336 33.1514C62.5626 34.1905 60.2773 34.7603 57.9485 34.8181C57.6739 34.835 57.3982 34.8164 57.1286 34.7625C56.8834 34.7169 56.6474 34.6332 56.4295 34.5148L51.3684 31.668L47.3484 29.4068L19.0994 13.5174C18.966 13.4551 18.8483 13.365 18.7547 13.2534C18.6611 13.1419 18.5938 13.0116 18.5577 12.8719C18.5383 12.7608 18.5235 12.6496 18.5143 12.5385C18.4922 12.3056 18.503 12.0708 18.5463 11.8407C18.5984 11.6012 18.7045 11.3759 18.8567 11.1811C19.0089 10.9863 19.2036 10.8268 19.4267 10.714C22.0203 9.33908 24.8914 8.53392 27.8383 8.35507C30.2936 8.14182 32.7674 8.43913 35.0959 9.22732C36.1376 8.76137 37.2633 8.50009 38.4088 8.4584C40.2949 8.38185 42.1815 8.60017 43.9968 9.10509C46.6418 9.70077 49.066 10.9979 51.0012 12.853C51.284 12.7963 51.5782 12.7496 51.885 12.7152C53.1208 12.5894 54.3691 12.6482 55.5867 12.8897C58.3138 13.4898 60.9207 14.5237 63.3027 15.9497C65.9576 17.4376 66.9635 18.9998 67.033 20.3943C67.043 20.5902 67.0346 20.7866 67.0079 20.981C66.8499 21.9051 66.3809 22.7518 65.6748 23.3878ZM52.6243 37.1227C52.802 37.2164 52.9535 37.3511 53.0656 37.5149C53.1082 37.5798 53.1394 37.6511 53.158 37.726C53.1786 37.8079 53.1817 37.893 53.1671 37.976C52.9987 38.7846 52.6428 39.545 52.1268 40.1992C51.6107 40.8534 50.9481 41.384 50.1895 41.7506C46.9536 43.3817 43.3042 44.0706 39.6772 43.7351C37.337 43.6101 35.0299 43.1396 32.8347 42.3395C31.4507 42.7795 30.0107 43.0308 28.5559 43.0862C25.4286 43.2383 22.3219 42.5153 19.6026 41.0028C18.5595 40.4266 17.5544 39.7876 16.593 39.0894L16.4608 38.9783C16.2806 38.8438 16.1004 38.7083 15.9385 38.5749C15.2017 37.9011 14.5484 37.1455 13.9918 36.3238C13.9692 36.2779 13.9505 36.2303 13.9359 36.1815C13.8551 35.9908 13.7969 35.7917 13.7626 35.5882C13.7093 35.2476 13.7414 34.8996 13.8561 34.5737C13.9193 34.4 14.0031 34.234 14.1058 34.0792C11.5364 33.4275 9.21892 32.0575 7.43899 30.138C6.7476 29.4037 6.32881 28.4648 6.24954 27.4713C6.24776 27.31 6.26151 27.1489 6.2906 26.9901C6.37622 26.605 6.54179 26.241 6.77713 25.9206C7.01248 25.6001 7.31261 25.33 7.65909 25.1267C7.16097 24.7385 6.75578 24.249 6.47176 23.6925C6.18774 23.1359 6.03173 22.5257 6.01462 21.9044C6.01516 21.6137 6.04766 21.3239 6.11155 21.0399C6.44542 20.016 6.98897 19.0687 7.70932 18.2553C8.42968 17.4419 9.31187 16.7793 10.3026 16.3076C10.9263 16.0057 11.6091 15.8371 12.3051 15.8131C12.9179 15.78 13.5321 15.7819 14.1446 15.8187C14.5468 15.8333 14.9401 15.9378 15.2941 16.1242L24.9283 21.5433L28.0678 23.3089L52.6243 37.1227Z" fill="url(#paint4_linear_11061_1067)" fill-opacity="0.35"/>
<path d="M68.1552 27.2334L68.2835 27.2062L68.2828 27.2034L68.1552 27.2334ZM65.6748 23.3878L65.587 23.2903L65.4707 23.3951L65.5943 23.4912L65.6748 23.3878ZM68.251 27.9712L68.382 27.966L68.3819 27.9648L68.251 27.9712ZM64.6336 33.1514L64.6925 33.2687L64.698 33.2656L64.6336 33.1514ZM57.9485 34.8181L57.9453 34.6869L57.9405 34.6872L57.9485 34.8181ZM57.1286 34.7625L57.1542 34.634L57.1526 34.6336L57.1286 34.7625ZM56.4295 34.5148L56.3652 34.629L56.3669 34.6299L56.4295 34.5148ZM51.3684 31.668L51.3041 31.7823V31.7823L51.3684 31.668ZM47.3484 29.4068L47.4127 29.2926V29.2925L47.3484 29.4068ZM19.0994 13.5174L19.1638 13.4028L19.1549 13.3987L19.0994 13.5174ZM18.5577 12.8719L18.4281 12.8945L18.4307 12.9047L18.5577 12.8719ZM18.5143 12.5385L18.645 12.5278L18.6449 12.5261L18.5143 12.5385ZM18.5463 11.8407L18.4181 11.8128L18.4174 11.8165L18.5463 11.8407ZM18.8567 11.1811L18.96 11.2618V11.2618L18.8567 11.1811ZM19.4267 10.714L19.4858 10.8311L19.4881 10.8299L19.4267 10.714ZM27.8383 8.35507L27.8463 8.48598L27.8497 8.48569L27.8383 8.35507ZM35.0959 9.22732L35.0538 9.3515L35.1025 9.36798L35.1494 9.347L35.0959 9.22732ZM38.4088 8.4584L38.4135 8.58943L38.4141 8.58941L38.4088 8.4584ZM43.9968 9.10509L43.9616 9.23156L43.968 9.233L43.9968 9.10509ZM51.0012 12.853L50.9104 12.9476L50.9598 12.995L51.0269 12.9815L51.0012 12.853ZM51.885 12.7152L51.8717 12.5848L51.8703 12.5849L51.885 12.7152ZM55.5867 12.8897L55.6149 12.7616L55.6122 12.761L55.5867 12.8897ZM63.3027 15.9497L63.2354 16.0623L63.2386 16.0641L63.3027 15.9497ZM67.033 20.3943L66.9021 20.4009L66.9021 20.401L67.033 20.3943ZM67.0079 20.981L67.1372 21.0031L67.1378 20.9988L67.0079 20.981ZM53.0656 37.5149L53.1752 37.443L53.1738 37.4408L53.0656 37.5149ZM52.6243 37.1227L52.5599 37.237L52.5631 37.2386L52.6243 37.1227ZM53.158 37.726L53.0307 37.7576L53.0308 37.7581L53.158 37.726ZM53.1671 37.976L53.2955 38.0028L53.2962 37.9988L53.1671 37.976ZM52.1268 40.1992L52.0238 40.118L52.1268 40.1992ZM50.1895 41.7506L50.1324 41.6325L50.1305 41.6335L50.1895 41.7506ZM39.6772 43.7351L39.6893 43.6044L39.6842 43.6042L39.6772 43.7351ZM32.8347 42.3395L32.8796 42.2163L32.8376 42.201L32.795 42.2145L32.8347 42.3395ZM28.5559 43.0862L28.5509 42.9552L28.5496 42.9552L28.5559 43.0862ZM19.6026 41.0028L19.6663 40.8882L19.666 40.888L19.6026 41.0028ZM16.593 39.0894L16.5085 39.19L16.516 39.1955L16.593 39.0894ZM16.4608 38.9783L16.5452 38.8777L16.5392 38.8732L16.4608 38.9783ZM15.9385 38.5749L15.8498 38.6718L15.8551 38.6761L15.9385 38.5749ZM13.9918 36.3238L13.8742 36.3817L13.8781 36.3898L13.8832 36.3973L13.9918 36.3238ZM13.9359 36.1815L14.0615 36.1439L14.0594 36.137L14.0566 36.1304L13.9359 36.1815ZM13.7626 35.5882L13.633 35.6084L13.6333 35.61L13.7626 35.5882ZM13.8561 34.5737L13.7329 34.5288L13.7324 34.5302L13.8561 34.5737ZM14.1058 34.0792L14.2151 34.1517L14.3173 33.9976L14.1381 33.9522L14.1058 34.0792ZM7.43899 30.138L7.53513 30.0489L7.53445 30.0481L7.43899 30.138ZM6.24954 27.4713L6.11813 27.4727L6.11885 27.4817L6.24954 27.4713ZM6.2906 26.9901L6.16252 26.9617L6.16163 26.9665L6.2906 26.9901ZM6.77713 25.9206L6.88281 25.9982L6.77713 25.9206ZM7.65909 25.1267L7.72543 25.2398L7.89204 25.1421L7.73969 25.0233L7.65909 25.1267ZM6.47176 23.6925L6.58854 23.6329L6.47176 23.6925ZM6.01462 21.9044L5.88345 21.9042L5.88356 21.908L6.01462 21.9044ZM6.11155 21.0399L5.98635 20.9991L5.98364 21.0112L6.11155 21.0399ZM10.3026 16.3076L10.3589 16.426L10.3597 16.4256L10.3026 16.3076ZM12.3051 15.8131L12.3096 15.9442L12.3122 15.944L12.3051 15.8131ZM14.1446 15.8187L14.1367 15.9496L14.1398 15.9497L14.1446 15.8187ZM15.2941 16.1242L15.3584 16.0099L15.3552 16.0082L15.2941 16.1242ZM24.9283 21.5433L24.864 21.6576L24.864 21.6576L24.9283 21.5433ZM28.0678 23.3089L28.1321 23.1946L28.1321 23.1946L28.0678 23.3089ZM68.2828 27.2034C67.919 25.6556 67.0278 24.2742 65.7553 23.2843L65.5943 23.4912C66.8202 24.445 67.6777 25.7748 68.0275 27.2634L68.2828 27.2034ZM68.3819 27.9648C68.3695 27.7098 68.3365 27.4562 68.2834 27.2062L68.0269 27.2607C68.0771 27.4969 68.1083 27.7366 68.12 27.9776L68.3819 27.9648ZM64.698 33.2656C67.4889 31.6925 68.454 29.7629 68.382 27.966L68.12 27.9765C68.1871 29.6508 67.2979 31.4991 64.5692 33.0372L64.698 33.2656ZM57.9518 34.9492C60.2997 34.8909 62.604 34.3164 64.6924 33.2686L64.5748 33.0342C62.5211 34.0646 60.2548 34.6297 57.9453 34.687L57.9518 34.9492ZM57.1029 34.8911C57.3836 34.9471 57.6707 34.9666 57.9566 34.949L57.9405 34.6872C57.6771 34.7035 57.4127 34.6856 57.1542 34.634L57.1029 34.8911ZM56.3669 34.6299C56.5969 34.755 56.846 34.8433 57.1046 34.8914L57.1526 34.6336C56.9209 34.5905 56.6979 34.5115 56.4921 34.3996L56.3669 34.6299ZM51.3041 31.7823L56.3652 34.629L56.4938 34.4005L51.4326 31.5537L51.3041 31.7823ZM47.2841 29.5211L51.3041 31.7823L51.4326 31.5537L47.4127 29.2926L47.2841 29.5211ZM19.0351 13.6317L47.2841 29.5211L47.4127 29.2925L19.1636 13.4032L19.0351 13.6317ZM18.6543 13.3377C18.7603 13.4641 18.8934 13.5659 19.0439 13.6362L19.1549 13.3987C19.0386 13.3444 18.9364 13.2659 18.8552 13.1692L18.6543 13.3377ZM18.4307 12.9047C18.4718 13.0635 18.5482 13.2113 18.6543 13.3377L18.8552 13.1692C18.774 13.0724 18.7158 12.9597 18.6846 12.839L18.4307 12.9047ZM18.3837 12.5493C18.3932 12.6648 18.4085 12.7799 18.4285 12.8944L18.6868 12.8493C18.668 12.7416 18.6538 12.6345 18.645 12.5278L18.3837 12.5493ZM18.4174 11.8165C18.3719 12.0586 18.3606 12.3057 18.3838 12.5509L18.6449 12.5261C18.6239 12.3055 18.6341 12.083 18.6751 11.865L18.4174 11.8165ZM18.7534 11.1004C18.5891 11.3106 18.4746 11.5539 18.4182 11.8128L18.6744 11.8686C18.7223 11.6485 18.8198 11.4413 18.96 11.2618L18.7534 11.1004ZM19.3675 10.597C19.1274 10.7184 18.9176 10.8902 18.7534 11.1004L18.96 11.2618C19.1002 11.0824 19.2797 10.9352 19.4858 10.831L19.3675 10.597ZM27.8304 8.2242C24.8648 8.40417 21.9755 9.21441 19.3653 10.5982L19.4881 10.8299C22.0651 9.46374 24.9179 8.66366 27.8463 8.48594L27.8304 8.2242ZM35.1379 9.10313C32.7922 8.30912 30.3003 8.00964 27.827 8.22445L27.8497 8.48569C30.2869 8.274 32.7425 8.56914 35.0538 9.3515L35.1379 9.10313ZM38.404 8.32738C37.2418 8.36967 36.0995 8.63478 35.0423 9.10763L35.1494 9.347C36.1757 8.88796 37.2849 8.6305 38.4135 8.58943L38.404 8.32738ZM44.0319 8.97877C42.2034 8.47019 40.3032 8.25029 38.4034 8.3274L38.4141 8.58941C40.2866 8.5134 42.1595 8.73016 43.9616 9.23141L44.0319 8.97877ZM51.0919 12.7583C49.1393 10.8866 46.6936 9.57804 44.0256 8.97718L43.968 9.233C46.5899 9.8235 48.9927 11.1093 50.9104 12.9476L51.0919 12.7583ZM51.8703 12.5849C51.5597 12.6198 51.2618 12.667 50.9754 12.7244L51.0269 12.9815C51.3061 12.9256 51.5967 12.8795 51.8996 12.8455L51.8703 12.5849ZM55.6122 12.761C54.3819 12.5171 53.1205 12.4576 51.8717 12.5848L51.8983 12.8456C53.1212 12.7211 54.3564 12.7793 55.5612 13.0183L55.6122 12.761ZM63.3701 15.8373C60.9758 14.4039 58.3557 13.3648 55.6149 12.7616L55.5586 13.0177C58.2719 13.6149 60.8655 14.6435 63.2354 16.0622L63.3701 15.8373ZM67.164 20.3878C67.0911 18.9281 66.0395 17.3331 63.3668 15.8354L63.2386 16.0641C65.8758 17.542 66.8358 19.0716 66.9021 20.4009L67.164 20.3878ZM67.1378 20.9988C67.1656 20.7963 67.1744 20.5917 67.164 20.3877L66.9021 20.401C66.9116 20.5887 66.9036 20.7769 66.878 20.9632L67.1378 20.9988ZM65.7625 23.4852C66.4902 22.8298 66.9741 21.9567 67.1372 21.0031L66.8787 20.9589C66.7257 21.8536 66.2716 22.6738 65.587 23.2903L65.7625 23.4852ZM53.1738 37.4408C53.0495 37.2592 52.8817 37.1103 52.6854 37.0067L52.5631 37.2386C52.7222 37.3226 52.8574 37.4429 52.9574 37.589L53.1738 37.4408ZM53.2852 37.6944C53.2631 37.6051 53.2259 37.5202 53.1752 37.443L52.956 37.5868C52.9905 37.6394 53.0157 37.6972 53.0307 37.7576L53.2852 37.6944ZM53.2962 37.9988C53.3141 37.8975 53.3103 37.7937 53.2851 37.6939L53.0308 37.7581C53.047 37.822 53.0494 37.8884 53.038 37.9532L53.2962 37.9988ZM52.2297 40.2804C52.7582 39.6104 53.1228 38.8314 53.2954 38.0028L53.0387 37.9493C52.8745 38.7378 52.5274 39.4796 52.0238 40.118L52.2297 40.2804ZM50.2465 41.8686C51.0228 41.4935 51.7012 40.9503 52.2297 40.2804L52.0238 40.118C51.5202 40.7564 50.8734 41.2745 50.1324 41.6325L50.2465 41.8686ZM39.6651 43.8656C43.3164 44.2034 46.9905 43.5099 50.2485 41.8677L50.1305 41.6335C46.9166 43.2534 43.2919 43.9378 39.6893 43.6045L39.6651 43.8656ZM32.7898 42.4627C34.9972 43.2672 37.3171 43.7404 39.6702 43.866L39.6842 43.6042C37.3569 43.4799 35.0626 43.0119 32.8796 42.2163L32.7898 42.4627ZM28.5609 43.2172C30.0275 43.1614 31.4791 42.9081 32.8745 42.4644L32.795 42.2145C31.4222 42.651 29.994 42.9003 28.5509 42.9552L28.5609 43.2172ZM19.5389 41.1174C22.2797 42.6419 25.4107 43.3704 28.5623 43.2171L28.5496 42.9552C25.4465 43.1061 22.3641 42.3888 19.6663 40.8882L19.5389 41.1174ZM16.516 39.1955C17.4817 39.8968 18.4914 40.5388 19.5392 41.1175L19.666 40.888C18.6276 40.3145 17.6271 39.6783 16.6701 38.9833L16.516 39.1955ZM16.3764 39.0787L16.5087 39.1898L16.6774 38.989L16.5451 38.8779L16.3764 39.0787ZM15.8551 38.6761C16.0198 38.8117 16.2023 38.949 16.3824 39.0834L16.5392 38.8732C16.3588 38.7386 16.181 38.6048 16.0218 38.4737L15.8551 38.6761ZM13.8832 36.3973C14.4456 37.2276 15.1057 37.9909 15.85 38.6717L16.0269 38.4782C15.2977 37.8112 14.6511 37.0635 14.1003 36.2502L13.8832 36.3973ZM13.8103 36.2191C13.827 36.2749 13.8484 36.3293 13.8742 36.3817L14.1094 36.2658C14.09 36.2265 14.074 36.1857 14.0615 36.1439L13.8103 36.2191ZM13.6333 35.61C13.6694 35.8237 13.7304 36.0326 13.8152 36.2327L14.0566 36.1304C13.9798 35.949 13.9245 35.7598 13.8918 35.5663L13.6333 35.61ZM13.7324 34.5302C13.6105 34.8764 13.5764 35.2464 13.633 35.6084L13.8921 35.5679C13.8422 35.2488 13.8722 34.9227 13.9797 34.6172L13.7324 34.5302ZM13.9966 34.0068C13.8882 34.1701 13.7997 34.3454 13.7329 34.5288L13.9793 34.6185C14.039 34.4546 14.1181 34.2979 14.2151 34.1517L13.9966 34.0068ZM7.34285 30.2272C9.14021 32.1654 11.48 33.5485 14.0736 34.2063L14.1381 33.9522C11.5928 33.3066 9.29764 31.9495 7.53513 30.0489L7.34285 30.2272ZM6.11885 27.4817C6.20052 28.5053 6.63197 29.4721 7.34353 30.2279L7.53445 30.0481C6.86323 29.3352 6.45711 28.4242 6.38024 27.4608L6.11885 27.4817ZM6.16163 26.9665C6.13103 27.1335 6.11657 27.303 6.11844 27.4727L6.38065 27.4698C6.37896 27.317 6.39199 27.1643 6.41956 27.0138L6.16163 26.9665ZM6.67146 25.843C6.42544 26.178 6.25221 26.5587 6.16261 26.9617L6.41858 27.0186C6.50023 26.6514 6.65815 26.3041 6.88281 25.9982L6.67146 25.843ZM7.59275 25.0137C7.23105 25.2258 6.91748 25.508 6.67146 25.843L6.88281 25.9982C7.10748 25.6923 7.39418 25.4341 7.72543 25.2398L7.59275 25.0137ZM6.35498 23.7521C6.6478 24.3259 7.06542 24.8302 7.57848 25.2302L7.73969 25.0233C7.25652 24.6467 6.86375 24.1721 6.58854 23.6329L6.35498 23.7521ZM5.88356 21.908C5.90121 22.5489 6.06214 23.1783 6.35498 23.7521L6.58854 23.6329C6.31334 23.0936 6.16225 22.5025 6.14568 21.9008L5.88356 21.908ZM5.98364 21.0112C5.91764 21.3045 5.88407 21.6039 5.88351 21.9042L6.14573 21.9047C6.14625 21.6236 6.17768 21.3433 6.23947 21.0687L5.98364 21.0112ZM7.61117 18.1684C6.87902 18.9951 6.32639 19.9581 5.9869 20.9993L6.2362 21.0806C6.56446 20.0739 7.09893 19.1423 7.80748 18.3422L7.61117 18.1684ZM10.2462 16.1892C9.23977 16.6684 8.34332 17.3417 7.61117 18.1684L7.80748 18.3422C8.51604 17.5421 9.38398 16.8902 10.3589 16.426L10.2462 16.1892ZM12.3006 15.6821C11.5864 15.7067 10.8857 15.8797 10.2454 16.1896L10.3597 16.4256C10.9669 16.1317 11.6317 15.9675 12.3096 15.9442L12.3006 15.6821ZM14.1525 15.6878C13.535 15.6507 12.9158 15.6488 12.298 15.6822L12.3122 15.944C12.92 15.9112 13.5292 15.913 14.1367 15.9496L14.1525 15.6878ZM15.3552 16.0082C14.9836 15.8126 14.5711 15.7029 14.1493 15.6877L14.1398 15.9497C14.5225 15.9636 14.8965 16.063 15.233 16.2403L15.3552 16.0082ZM24.9926 21.429L15.3584 16.01L15.2298 16.2385L24.864 21.6576L24.9926 21.429ZM28.1321 23.1946L24.9926 21.429L24.864 21.6576L28.0036 23.4232L28.1321 23.1946ZM52.6885 37.0084L28.1321 23.1946L28.0036 23.4232L52.56 37.2369L52.6885 37.0084Z" fill="url(#paint5_linear_11061_1067)" mask="url(#path-6-inside-1_11061_1067)"/>
</g>
<defs>
<filter id="filter0_di_11061_1067" x="0.810869" y="12.9905" width="85.3107" height="54.8118" filterUnits="userSpaceOnUse" color-interpolation-filters="sRGB">
<feFlood flood-opacity="0" result="BackgroundImageFix"/>
<feColorMatrix in="SourceAlpha" type="matrix" values="0 0 0 0 0 0 0 0 0 0 0 0 0 0 0 0 0 0 127 0" result="hardAlpha"/>
<feOffset dy="5.24444"/>
<feGaussianBlur stdDeviation="3.27778"/>
<feComposite in2="hardAlpha" operator="out"/>
<feColorMatrix type="matrix" values="0 0 0 0 0.0980392 0 0 0 0 0.211765 0 0 0 0 0.482353 0 0 0 0.5 0"/>
<feBlend mode="normal" in2="BackgroundImageFix" result="effect1_dropShadow_11061_1067"/>
<feBlend mode="normal" in="SourceGraphic" in2="effect1_dropShadow_11061_1067" result="shape"/>
<feColorMatrix in="SourceAlpha" type="matrix" values="0 0 0 0 0 0 0 0 0 0 0 0 0 0 0 0 0 0 127 0" result="hardAlpha"/>
<feOffset/>
<feGaussianBlur stdDeviation="2.62222"/>
<feComposite in2="hardAlpha" operator="arithmetic" k2="-1" k3="1"/>
<feColorMatrix type="matrix" values="0 0 0 0 1 0 0 0 0 1 0 0 0 0 1 0 0 0 0.25 0"/>
<feBlend mode="normal" in2="shape" result="effect2_innerShadow_11061_1067"/>
</filter>
<filter id="filter1_f_11061_1067" x="5.0014" y="15.679" width="65.868" height="34.8775" filterUnits="userSpaceOnUse" color-interpolation-filters="sRGB">
<feFlood flood-opacity="0" result="BackgroundImageFix"/>
<feBlend mode="normal" in="SourceGraphic" in2="BackgroundImageFix" result="shape"/>
<feGaussianBlur stdDeviation="1.31111" result="effect1_foregroundBlur_11061_1067"/>
</filter>
<filter id="filter2_b_11061_1067" x="4.70329" y="11.0518" width="64.8543" height="36.5492" filterUnits="userSpaceOnUse" color-interpolation-filters="sRGB">
<feFlood flood-opacity="0" result="BackgroundImageFix"/>
<feGaussianBlur in="BackgroundImageFix" stdDeviation="0.655556"/>
<feComposite in2="SourceAlpha" operator="in" result="effect1_backgroundBlur_11061_1067"/>
<feBlend mode="normal" in="SourceGraphic" in2="effect1_backgroundBlur_11061_1067" result="shape"/>
</filter>
<filter id="filter3_bi_11061_1067" x="2.08128" y="4.35475" width="70.1066" height="43.3965" filterUnits="userSpaceOnUse" color-interpolation-filters="sRGB">
<feFlood flood-opacity="0" result="BackgroundImageFix"/>
<feGaussianBlur in="BackgroundImageFix" stdDeviation="1.96667"/>
<feComposite in2="SourceAlpha" operator="in" result="effect1_backgroundBlur_11061_1067"/>
<feBlend mode="normal" in="SourceGraphic" in2="effect1_backgroundBlur_11061_1067" result="shape"/>
<feColorMatrix in="SourceAlpha" type="matrix" values="0 0 0 0 0 0 0 0 0 0 0 0 0 0 0 0 0 0 127 0" result="hardAlpha"/>
<feOffset/>
<feGaussianBlur stdDeviation="0.983333"/>
<feComposite in2="hardAlpha" operator="arithmetic" k2="-1" k3="1"/>
<feColorMatrix type="matrix" values="0 0 0 0 1 0 0 0 0 1 0 0 0 0 1 0 0 0 0.5 0"/>
<feBlend mode="normal" in2="shape" result="effect2_innerShadow_11061_1067"/>
</filter>
<linearGradient id="paint0_linear_11061_1067" x1="76.1279" y1="22.2757" x2="9.4404" y2="43.7321" gradientUnits="userSpaceOnUse">
<stop stop-color="#00298D"/>
<stop offset="0.189268" stop-color="#2349A7"/>
<stop offset="0.646435" stop-color="#3155AD"/>
<stop offset="1" stop-color="#032C91"/>
</linearGradient>
<radialGradient id="paint1_radial_11061_1067" cx="0" cy="0" r="1" gradientUnits="userSpaceOnUse" gradientTransform="translate(43.4662 35.152) rotate(90) scale(28.6214 49.5543)">
<stop offset="0.0520833" stop-color="#062E8D"/>
<stop offset="1" stop-color="#2968FE"/>
</radialGradient>
<linearGradient id="paint2_linear_11061_1067" x1="31.9512" y1="13.103" x2="51.5522" y2="54.7903" gradientUnits="userSpaceOnUse">
<stop stop-color="white" stop-opacity="0"/>
<stop offset="1" stop-color="white" stop-opacity="0.43"/>
</linearGradient>
<linearGradient id="paint3_linear_11061_1067" x1="68.309" y1="61.805" x2="21.0184" y2="-7.0613" gradientUnits="userSpaceOnUse">
<stop stop-color="#E9F7FF"/>
<stop offset="0.579246" stop-color="#D7F0FF" stop-opacity="0.57"/>
<stop offset="0.956471" stop-color="#BDE7FF" stop-opacity="0"/>
</linearGradient>
<linearGradient id="paint4_linear_11061_1067" x1="6.01462" y1="5.21981" x2="63.3373" y2="50.0987" gradientUnits="userSpaceOnUse">
<stop offset="0.0529546" stop-color="#3FA6E0"/>
<stop offset="0.461273" stop-color="#79CFFF"/>
<stop offset="1" stop-color="#79CFFF"/>
</linearGradient>
<linearGradient id="paint5_linear_11061_1067" x1="66.6261" y1="49.0076" x2="11.4166" y2="10.1172" gradientUnits="userSpaceOnUse">
<stop stop-color="#E9F7FF"/>
<stop offset="0.923987" stop-color="#BDE7FF" stop-opacity="0"/>
</linearGradient>
</defs>
</svg>
