<svg width="7" height="13" viewBox="0 0 7 13" fill="none" xmlns="http://www.w3.org/2000/svg">
<path d="M0.73294 0.707025C0.876982 0.569968 1.06955 0.495717 1.26832 0.500592C1.46709 0.505467 1.65579 0.589071 1.79294 0.733025L6.79394 5.98303C6.92691 6.12251 7.00108 6.30782 7.00108 6.50053C7.00108 6.69323 6.92691 6.87854 6.79394 7.01803L1.79394 12.268C1.72605 12.3394 1.64476 12.3967 1.55472 12.4367C1.46468 12.4766 1.36765 12.4985 1.26918 12.5009C1.1707 12.5034 1.0727 12.4864 0.980782 12.451C0.88886 12.4156 0.804813 12.3624 0.73344 12.2945C0.662066 12.2266 0.604764 12.1453 0.564805 12.0553C0.524847 11.9653 0.503014 11.8682 0.500553 11.7698C0.498092 11.6713 0.515052 11.5733 0.550464 11.4814C0.585876 11.3894 0.639046 11.3054 0.70694 11.234L5.21594 6.50003L0.70594 1.76603C0.569011 1.62185 0.494936 1.42921 0.499999 1.23044C0.505062 1.03167 0.588848 0.84304 0.73294 0.706025V0.707025Z" fill="#292D33"/>
</svg>
